<?xml version="1.0" encoding="utf-8"?>
<!-- Generator: Adobe Illustrator 24.0.0, SVG Export Plug-In . SVG Version: 6.00 Build 0)  -->
<svg version="1.1" id="Layer_1" xmlns="http://www.w3.org/2000/svg" xmlns:xlink="http://www.w3.org/1999/xlink" x="0px" y="0px"
	 viewBox="0 0 416 100" style="enable-background:new 0 0 416 100;" xml:space="preserve">
<style type="text/css">
	.st0{fill:#FFFFFF;stroke:#231F20;stroke-width:2.0338;stroke-miterlimit:10;}
	.st1{fill:#231F20;}
	.st2{fill:#FFFFFF;}
	.st3{fill:#F0BF66;stroke:#231F20;stroke-width:2.0338;stroke-miterlimit:10;}
	.st4{fill:#612B16;}
	.st5{fill:#FFFFFF;stroke:#231F20;stroke-width:2.0338;stroke-linecap:round;stroke-linejoin:round;stroke-miterlimit:10;}
	.st6{fill:#231F20;stroke:#231F20;stroke-width:2.0338;stroke-miterlimit:10;}
	.st7{fill:#A786BD;}
</style>
<g>
	<path class="st0" d="M74.35,28.52L74.35,28.52C71.95,18.05,61.96,10.2,50,10.2c-11.97,0-21.96,7.85-24.34,18.32h-0.01
		c0.23-2.03-8.3,35.25-1.69,51.86c3.69,9.27,18.07,6.97,26.04,6.97c7.97,0,22.35,2.3,26.04-6.97
		C82.65,63.77,74.12,26.49,74.35,28.52z"/>
	<path class="st1" d="M40.9,10.2c1.56,2.07,0.04,4.39-2.52,6.32c-2.57,1.93-5.21,2.74-6.77,0.67c-1.56-2.07-1.43-6.23,1.13-8.16
		C35.31,7.09,39.35,8.13,40.9,10.2z"/>
	<path class="st1" d="M47.37,28.9c0-0.9,1.17-1.23,2.62-1.23c1.45,0,2.63,0.32,2.63,1.23c0,0.9-1.17,2.03-2.62,2.04
		C48.55,30.93,47.37,29.8,47.37,28.9z"/>
	<path class="st1" d="M46.24,20.93c1.73,2.3-0.25,5.1-3.46,7.51s-6.45,3.53-8.18,1.24c-1.73-2.3-1.29-7.14,1.92-9.56
		C39.73,17.7,44.51,18.63,46.24,20.93z"/>
	<circle class="st2" cx="41.48" cy="23.45" r="1.26"/>
	<path class="st1" d="M59.09,10.2c-1.56,2.07-0.04,4.39,2.52,6.32c2.57,1.93,5.21,2.74,6.77,0.67c1.56-2.07,1.43-6.23-1.13-8.16
		S60.65,8.13,59.09,10.2z"/>
	<path class="st1" d="M53.76,20.93c-1.73,2.3,0.25,5.1,3.46,7.51c3.21,2.42,6.45,3.53,8.18,1.24c1.73-2.3,1.29-7.14-1.92-9.56
		C60.26,17.7,55.49,18.63,53.76,20.93z"/>
	<circle class="st2" cx="58.51" cy="23.45" r="1.26"/>
	<path class="st3" d="M31.35,81.05c0.05-0.29-0.61-0.92-0.79-1.12c-0.25-0.27-0.43-0.48-0.64-0.79c-0.34-0.49-0.59-1.04-0.97-1.53
		c-0.7-0.92-0.93-2.03-1.69-2.88c-0.4-0.45-0.73-0.96-1.07-1.45c-0.13-0.18-0.29-0.33-0.43-0.51c-0.21-0.27-0.32-0.62-0.5-0.93
		c-0.23-0.4-0.44-0.62-0.55-1.05c-0.14-0.58-0.43-1.14-0.66-1.68c-0.37-0.86-0.79-1.93-0.83-2.87c-0.04-1.04-0.37-2.19-0.08-3.22
		c0.15-0.55,0.43-1.06,0.6-1.61c0.08-0.25,0.24-0.51,0.3-0.76c0.08-0.29,0.07-0.54,0.2-0.81c0.36-0.77,0.51-1.73,0.51-2.6
		c0-0.41,0.01-0.83,0-1.25c-0.02-0.64-0.3-1.22-0.35-1.84c-0.06-0.73-0.19-1.48-0.31-2.25c-0.15-0.97,0.92-1.97,1.34-2.78
		c0.23-0.43,0.5-0.65,0.81-0.99c0.23-0.25,0.31-0.74,0.47-1.04c0.16-0.31,0.29-0.6,0.42-0.92c0.38-0.89,0.93-1.72,1.7-2.29
		c0.37-0.28,0.66-0.69,1.02-0.99c1.12-0.96,3.21-0.86,4.24-1.9c0.65-0.66,1.43-1.34,2.23-1.85c0.72-0.46,0.94-0.87,1.73-1.22
		c0.47-0.21,0.62-1.45,1.12-1.6c0.48-0.14,0.99-0.18,1.47-0.34c1.02-0.34,1.54-0.37,2.52-0.79c0.51-0.21,1.04-0.32,1.47-0.66
		c0.44-0.35,0.75-0.49,1.32-0.23c0.48,0.22,1-0.25,1.55-0.26c0.65-0.01,1.4,0.12,2.03-0.02c0.37-0.08,1.7,0.03,2.09,0.04
		c0.98,0.01,1.02,0.7,1.94,1.03c0.73,0.27,1.22-0.02,1.97,0.12c0.48,0.09,0.97,0.18,1.46,0.31c1.45,0.38,2.4,1.58,3.83,2.06
		c0.42,0.14,0.69,0.15,1.05,0.39c0.37,0.25,0.66,0.59,1.06,0.82c0.56,0.33,1.31,0.48,1.81,0.86c0.19,0.15,0.28,0.34,0.47,0.47
		c0.29,0.19,0.67,0.19,0.96,0.44c0.32,0.28,0.5,0.77,0.8,1.08c0.51,0.51,1.16,0.64,1.69,1.06c0.24,0.19,0.29,0.49,0.5,0.69
		c0.15,0.13,0.35,0.22,0.51,0.34c0.4,0.3,0.82,0.54,1.19,0.89c0.46,0.42,0.8,0.99,1.08,1.55c0.55,1.1,0.99,2.29,1.46,3.43
		c0.5,1.19,0.82,2.44,1.87,3.25c0.45,0.35,0.54,0.38,0.51,0.94c-0.07,1.48-0.5,2.91-0.5,4.41c-0.01,1.68,0.39,3.35,0.79,4.98
		c0.13,0.5,0.29,0.96,0.39,1.47c0.13,0.69,0.14,1.4,0.27,2.09c0.11,0.56,0.25,1.02,0.26,1.61c0,0.72-0.16,1.41-0.26,2.12
		c-0.11,0.7-0.64,0.84-0.73,1.54c-0.08,0.61-1,1.94-1.32,2.46c-0.2,0.33-0.43,0.51-0.67,0.79c-0.22,0.26-0.36,0.55-0.58,0.81
		c-0.2,0.23-0.45,0.56-0.68,0.76c-0.52,0.44-0.78,1.15-1.41,1.41c-1.21,0.5-1.86,0.18-2.85,1.07c-0.63,0.56-1.18,1.09-1.77,1.69
		c-0.55,0.57-1.27,1.27-1.95,1.66c-0.84,0.48-1.55,1.14-2.4,1.6c-0.43,0.24-0.92,0.43-1.33,0.7c-0.43,0.36-0.87,0.71-1.31,1.05
		c-0.43,0.27-0.87,0.51-1.32,0.73c-0.63,0.41-1.24,0.79-1.94,1.11c-0.76,0.35-1.54,0.61-2.32,0.91c-0.72,0.28-1.41,0.64-2.17,0.79
		c-1.3,0.26-2.72,0.08-4.04,0.08c-0.58,0-1.3,0-1.81-0.36c-0.36-0.25-0.5-0.69-0.84-0.97c-0.28-0.23-2.61-0.47-2.89-0.69
		c-0.72-0.57-1.63-1.17-2.47-1.57c-0.47-0.22-0.79-0.42-1.18-0.73c-0.66-0.52-1.27-0.84-2.08-1.12c-0.59-0.2-0.51-1.12-1.07-1.22
		c-0.22-0.04-0.55-0.03-0.74-0.14c-0.12-0.15-0.25-0.3-0.39-0.44c-0.2-0.14-0.42-0.27-0.64-0.38
		C33.15,81.68,32.91,81.87,31.35,81.05z"/>
	<path class="st4" d="M32.77,49.82c0.01-0.04-0.09-0.13-0.12-0.15c-0.04-0.04-0.06-0.06-0.1-0.11c-0.05-0.07-0.09-0.14-0.14-0.21
		c-0.1-0.13-0.14-0.28-0.25-0.39c-0.06-0.06-0.11-0.13-0.16-0.2c-0.02-0.03-0.04-0.04-0.06-0.07c-0.03-0.04-0.05-0.08-0.07-0.13
		c-0.03-0.05-0.07-0.08-0.08-0.14c-0.02-0.08-0.06-0.16-0.1-0.23c-0.05-0.12-0.12-0.26-0.12-0.39c-0.01-0.14-0.06-0.3-0.01-0.44
		c0.02-0.07,0.06-0.14,0.09-0.22c0.01-0.03,0.04-0.07,0.05-0.1c0.01-0.04,0.01-0.07,0.03-0.11c0.05-0.1,0.08-0.24,0.08-0.35
		c0-0.06,0-0.11,0-0.17c0-0.09-0.05-0.17-0.05-0.25c-0.01-0.1-0.03-0.2-0.05-0.31c-0.02-0.13,0.14-0.27,0.2-0.38
		c0.03-0.06,0.07-0.09,0.12-0.13c0.03-0.03,0.05-0.1,0.07-0.14c0.02-0.04,0.04-0.08,0.06-0.13c0.06-0.12,0.14-0.23,0.25-0.31
		c0.05-0.04,0.1-0.09,0.15-0.13c0.17-0.13,0.48-0.12,0.63-0.26c0.1-0.09,0.21-0.18,0.33-0.25c0.11-0.06,0.14-0.12,0.26-0.17
		c0.07-0.03,0.09-0.2,0.17-0.22c0.07-0.02,0.15-0.02,0.22-0.05c0.15-0.05,0.23-0.05,0.38-0.11c0.08-0.03,0.15-0.04,0.22-0.09
		c0.07-0.05,0.11-0.07,0.2-0.03c0.07,0.03,0.15-0.03,0.23-0.04c0.1,0,0.21,0.02,0.3,0c0.06-0.01,0.25,0,0.31,0
		c0.15,0,0.15,0.09,0.29,0.14c0.11,0.04,0.18,0,0.29,0.02c0.07,0.01,0.14,0.02,0.22,0.04c0.22,0.05,0.36,0.21,0.57,0.28
		c0.06,0.02,0.1,0.02,0.16,0.05c0.06,0.03,0.1,0.08,0.16,0.11c0.08,0.05,0.19,0.07,0.27,0.12c0.03,0.02,0.04,0.05,0.07,0.06
		c0.04,0.03,0.1,0.03,0.14,0.06c0.05,0.04,0.07,0.1,0.12,0.15c0.08,0.07,0.17,0.09,0.25,0.14c0.04,0.03,0.04,0.07,0.08,0.09
		c0.02,0.02,0.05,0.03,0.08,0.05c0.06,0.04,0.12,0.07,0.18,0.12c0.07,0.06,0.12,0.14,0.16,0.21c0.08,0.15,0.15,0.31,0.22,0.47
		c0.07,0.16,0.12,0.33,0.28,0.44c0.07,0.05,0.08,0.05,0.08,0.13c-0.01,0.2-0.07,0.4-0.08,0.6c0,0.23,0.06,0.46,0.12,0.68
		c0.02,0.07,0.04,0.13,0.06,0.2c0.02,0.09,0.02,0.19,0.04,0.28c0.02,0.08,0.04,0.14,0.04,0.22c0,0.1-0.02,0.19-0.04,0.29
		c-0.02,0.1-0.1,0.11-0.11,0.21c-0.01,0.08-0.15,0.26-0.2,0.34c-0.03,0.04-0.06,0.07-0.1,0.11c-0.03,0.03-0.05,0.07-0.09,0.11
		c-0.03,0.03-0.07,0.08-0.1,0.1c-0.08,0.06-0.12,0.16-0.21,0.19c-0.18,0.07-0.28,0.02-0.42,0.15c-0.09,0.08-0.18,0.15-0.26,0.23
		c-0.08,0.08-0.19,0.17-0.29,0.23c-0.13,0.07-0.23,0.15-0.36,0.22c-0.06,0.03-0.14,0.06-0.2,0.1c-0.06,0.05-0.13,0.1-0.2,0.14
		c-0.06,0.04-0.13,0.07-0.2,0.1c-0.09,0.06-0.18,0.11-0.29,0.15c-0.11,0.05-0.23,0.08-0.35,0.12c-0.11,0.04-0.21,0.09-0.32,0.11
		c-0.19,0.04-0.4,0.01-0.6,0.01c-0.09,0-0.19,0-0.27-0.05c-0.05-0.03-0.07-0.09-0.13-0.13c-0.04-0.03-0.39-0.06-0.43-0.09
		c-0.11-0.08-0.24-0.16-0.37-0.21c-0.07-0.03-0.12-0.06-0.18-0.1c-0.1-0.07-0.19-0.11-0.31-0.15c-0.09-0.03-0.08-0.15-0.16-0.17
		c-0.03-0.01-0.08,0-0.11-0.02c-0.02-0.02-0.04-0.04-0.06-0.06c-0.03-0.02-0.06-0.04-0.09-0.05C33.04,49.91,33,49.93,32.77,49.82z"
		/>
	<path class="st4" d="M54.31,56.04c0.01-0.03-0.07-0.09-0.09-0.11c-0.03-0.03-0.05-0.05-0.07-0.08c-0.04-0.05-0.07-0.11-0.11-0.16
		c-0.08-0.09-0.1-0.21-0.19-0.29c-0.04-0.05-0.08-0.1-0.12-0.15c-0.01-0.02-0.03-0.03-0.05-0.05c-0.02-0.03-0.04-0.06-0.06-0.1
		c-0.03-0.04-0.05-0.06-0.06-0.11c-0.02-0.06-0.05-0.12-0.07-0.17c-0.04-0.09-0.09-0.2-0.09-0.29c0-0.11-0.04-0.22-0.01-0.33
		c0.02-0.06,0.05-0.11,0.07-0.16c0.01-0.03,0.03-0.05,0.03-0.08c0.01-0.03,0.01-0.06,0.02-0.08c0.04-0.08,0.06-0.18,0.06-0.27
		c0-0.04,0-0.08,0-0.13c0-0.07-0.03-0.12-0.04-0.19c-0.01-0.07-0.02-0.15-0.03-0.23c-0.02-0.1,0.1-0.2,0.15-0.28
		c0.03-0.04,0.06-0.07,0.09-0.1c0.03-0.03,0.03-0.08,0.05-0.11c0.02-0.03,0.03-0.06,0.05-0.09c0.04-0.09,0.1-0.18,0.19-0.23
		c0.04-0.03,0.07-0.07,0.11-0.1c0.12-0.1,0.36-0.09,0.47-0.19c0.07-0.07,0.16-0.14,0.25-0.19c0.08-0.05,0.1-0.09,0.19-0.13
		c0.05-0.02,0.07-0.15,0.12-0.16c0.05-0.01,0.11-0.02,0.16-0.04c0.11-0.03,0.17-0.04,0.28-0.08c0.06-0.02,0.12-0.03,0.16-0.07
		c0.05-0.04,0.08-0.05,0.15-0.02c0.05,0.02,0.11-0.03,0.17-0.03c0.07,0,0.16,0.01,0.23,0c0.04-0.01,0.19,0,0.23,0
		c0.11,0,0.11,0.07,0.22,0.1c0.08,0.03,0.14,0,0.22,0.01c0.05,0.01,0.11,0.02,0.16,0.03c0.16,0.04,0.27,0.16,0.43,0.21
		c0.05,0.01,0.08,0.02,0.12,0.04c0.04,0.03,0.07,0.06,0.12,0.08c0.06,0.03,0.15,0.05,0.2,0.09c0.02,0.02,0.03,0.03,0.05,0.05
		c0.03,0.02,0.07,0.02,0.11,0.04c0.04,0.03,0.06,0.08,0.09,0.11c0.06,0.05,0.13,0.07,0.19,0.11c0.03,0.02,0.03,0.05,0.06,0.07
		c0.02,0.01,0.04,0.02,0.06,0.03c0.05,0.03,0.09,0.06,0.13,0.09c0.05,0.04,0.09,0.1,0.12,0.16c0.06,0.11,0.11,0.23,0.16,0.35
		c0.06,0.12,0.09,0.25,0.21,0.33c0.05,0.04,0.06,0.04,0.06,0.1c-0.01,0.15-0.06,0.3-0.06,0.45c0,0.17,0.04,0.34,0.09,0.51
		c0.01,0.05,0.03,0.1,0.04,0.15c0.01,0.07,0.02,0.14,0.03,0.21c0.01,0.06,0.03,0.1,0.03,0.16c0,0.07-0.02,0.14-0.03,0.22
		c-0.01,0.07-0.07,0.09-0.08,0.16c-0.01,0.06-0.11,0.2-0.15,0.25c-0.02,0.03-0.05,0.05-0.07,0.08c-0.02,0.03-0.04,0.06-0.06,0.08
		c-0.02,0.02-0.05,0.06-0.08,0.08c-0.06,0.05-0.09,0.12-0.16,0.14c-0.14,0.05-0.21,0.02-0.32,0.11c-0.07,0.06-0.13,0.11-0.2,0.17
		c-0.06,0.06-0.14,0.13-0.22,0.17c-0.09,0.05-0.17,0.12-0.27,0.16c-0.05,0.02-0.1,0.04-0.15,0.07c-0.05,0.04-0.1,0.07-0.15,0.11
		c-0.05,0.03-0.1,0.05-0.15,0.07c-0.07,0.04-0.14,0.08-0.22,0.11c-0.08,0.04-0.17,0.06-0.26,0.09c-0.08,0.03-0.16,0.07-0.24,0.08
		c-0.15,0.03-0.3,0.01-0.45,0.01c-0.06,0-0.15,0-0.2-0.04c-0.04-0.03-0.06-0.07-0.09-0.1c-0.03-0.02-0.29-0.05-0.32-0.07
		c-0.08-0.06-0.18-0.12-0.28-0.16c-0.05-0.02-0.09-0.04-0.13-0.07c-0.07-0.05-0.14-0.09-0.23-0.11c-0.07-0.02-0.06-0.11-0.12-0.13
		c-0.02,0-0.06,0-0.08-0.01c-0.01-0.02-0.03-0.03-0.04-0.05c-0.02-0.01-0.05-0.03-0.07-0.04C54.51,56.1,54.48,56.12,54.31,56.04z"/>
	<path class="st4" d="M45.98,83.22c0-0.02-0.05-0.06-0.06-0.08c-0.02-0.02-0.03-0.03-0.05-0.05c-0.02-0.03-0.04-0.07-0.07-0.1
		c-0.05-0.06-0.07-0.14-0.13-0.2c-0.03-0.03-0.05-0.07-0.08-0.1c-0.01-0.01-0.02-0.02-0.03-0.03c-0.02-0.02-0.02-0.04-0.04-0.06
		c-0.02-0.03-0.03-0.04-0.04-0.07c-0.01-0.04-0.03-0.08-0.05-0.11c-0.03-0.06-0.06-0.13-0.06-0.2c0-0.07-0.03-0.15-0.01-0.22
		c0.01-0.04,0.03-0.07,0.04-0.11c0.01-0.02,0.02-0.03,0.02-0.05c0.01-0.02,0.01-0.04,0.02-0.06c0.03-0.05,0.04-0.12,0.04-0.18
		c0-0.03,0-0.06,0-0.08c0-0.04-0.02-0.08-0.03-0.13c0-0.05-0.01-0.1-0.02-0.15c-0.01-0.07,0.07-0.13,0.1-0.19
		c0.02-0.03,0.04-0.04,0.06-0.07c0.02-0.02,0.02-0.05,0.03-0.07c0.01-0.02,0.02-0.04,0.03-0.06c0.03-0.06,0.07-0.12,0.13-0.16
		c0.03-0.02,0.05-0.05,0.08-0.07c0.08-0.07,0.24-0.06,0.32-0.13c0.05-0.04,0.11-0.09,0.17-0.13c0.05-0.03,0.07-0.06,0.13-0.08
		c0.04-0.01,0.05-0.1,0.08-0.11c0.04-0.01,0.07-0.01,0.11-0.02c0.08-0.02,0.11-0.03,0.19-0.05c0.04-0.01,0.08-0.02,0.11-0.04
		c0.03-0.02,0.06-0.03,0.1-0.02c0.04,0.01,0.07-0.02,0.11-0.02c0.05,0,0.1,0.01,0.15,0c0.03-0.01,0.13,0,0.16,0
		c0.07,0,0.08,0.05,0.14,0.07c0.05,0.02,0.09,0,0.15,0.01c0.04,0.01,0.07,0.01,0.11,0.02c0.11,0.03,0.18,0.11,0.28,0.14
		c0.03,0.01,0.05,0.01,0.08,0.03c0.03,0.02,0.05,0.04,0.08,0.06c0.04,0.02,0.1,0.03,0.13,0.06c0.01,0.01,0.02,0.02,0.03,0.03
		c0.02,0.01,0.05,0.01,0.07,0.03c0.02,0.02,0.04,0.05,0.06,0.07c0.04,0.03,0.09,0.04,0.13,0.07c0.02,0.01,0.02,0.03,0.04,0.05
		c0.01,0.01,0.03,0.02,0.04,0.02c0.03,0.02,0.06,0.04,0.09,0.06c0.03,0.03,0.06,0.07,0.08,0.11c0.04,0.08,0.07,0.16,0.11,0.23
		c0.04,0.08,0.06,0.17,0.14,0.22c0.03,0.02,0.04,0.03,0.04,0.06c-0.01,0.1-0.04,0.2-0.04,0.3c0,0.11,0.03,0.23,0.06,0.34
		c0.01,0.03,0.02,0.07,0.03,0.1c0.01,0.05,0.01,0.1,0.02,0.14c0.01,0.04,0.02,0.07,0.02,0.11c0,0.05-0.01,0.1-0.02,0.14
		c-0.01,0.05-0.05,0.06-0.05,0.11c-0.01,0.04-0.07,0.13-0.1,0.17c-0.01,0.02-0.03,0.03-0.05,0.05c-0.02,0.02-0.03,0.04-0.04,0.06
		c-0.01,0.02-0.03,0.04-0.05,0.05c-0.04,0.03-0.06,0.08-0.1,0.1c-0.09,0.03-0.14,0.01-0.21,0.07c-0.05,0.04-0.09,0.07-0.13,0.12
		c-0.04,0.04-0.09,0.09-0.15,0.11c-0.06,0.03-0.12,0.08-0.18,0.11c-0.03,0.02-0.07,0.03-0.1,0.05c-0.03,0.02-0.06,0.05-0.1,0.07
		c-0.03,0.02-0.06,0.03-0.1,0.05c-0.05,0.03-0.09,0.05-0.14,0.08c-0.06,0.02-0.11,0.04-0.17,0.06c-0.05,0.02-0.11,0.04-0.16,0.05
		c-0.1,0.02-0.2,0.01-0.3,0.01c-0.04,0-0.1,0-0.13-0.02c-0.03-0.02-0.04-0.05-0.06-0.07c-0.02-0.02-0.19-0.03-0.22-0.05
		c-0.05-0.04-0.12-0.08-0.18-0.11c-0.03-0.02-0.06-0.03-0.09-0.05c-0.05-0.04-0.09-0.06-0.15-0.08c-0.04-0.01-0.04-0.08-0.08-0.08
		c-0.02,0-0.04,0-0.06-0.01c-0.01-0.01-0.02-0.02-0.03-0.03c-0.02-0.01-0.03-0.02-0.05-0.03C46.12,83.26,46.1,83.27,45.98,83.22z"/>
	<path class="st4" d="M55,43.72c0-0.02-0.05-0.06-0.06-0.08c-0.02-0.02-0.03-0.03-0.05-0.05c-0.02-0.03-0.04-0.07-0.07-0.1
		c-0.05-0.06-0.07-0.14-0.13-0.2c-0.03-0.03-0.05-0.07-0.08-0.1c-0.01-0.01-0.02-0.02-0.03-0.03c-0.02-0.02-0.02-0.04-0.04-0.06
		c-0.02-0.03-0.03-0.04-0.04-0.07c-0.01-0.04-0.03-0.08-0.05-0.11c-0.03-0.06-0.06-0.13-0.06-0.2c0-0.07-0.03-0.15-0.01-0.22
		c0.01-0.04,0.03-0.07,0.04-0.11c0.01-0.02,0.02-0.03,0.02-0.05c0.01-0.02,0.01-0.04,0.01-0.06c0.03-0.05,0.04-0.12,0.04-0.18
		c0-0.03,0-0.06,0-0.08c0-0.04-0.02-0.08-0.03-0.13c0-0.05-0.01-0.1-0.02-0.15c-0.01-0.07,0.07-0.13,0.1-0.19
		c0.02-0.03,0.04-0.04,0.06-0.07c0.02-0.02,0.02-0.05,0.03-0.07c0.01-0.02,0.02-0.04,0.03-0.06c0.03-0.06,0.07-0.12,0.13-0.16
		c0.03-0.02,0.05-0.05,0.08-0.07c0.08-0.07,0.24-0.06,0.32-0.13c0.05-0.04,0.11-0.09,0.17-0.13c0.05-0.03,0.07-0.06,0.13-0.08
		c0.04-0.01,0.05-0.1,0.08-0.11c0.04-0.01,0.07-0.01,0.11-0.02c0.08-0.02,0.11-0.03,0.19-0.05c0.04-0.01,0.08-0.02,0.11-0.04
		c0.03-0.02,0.06-0.03,0.1-0.02c0.04,0.01,0.07-0.02,0.11-0.02c0.05,0,0.1,0.01,0.15,0c0.03-0.01,0.13,0,0.16,0
		c0.07,0,0.08,0.05,0.14,0.07c0.05,0.02,0.09,0,0.15,0.01c0.04,0.01,0.07,0.01,0.11,0.02c0.11,0.03,0.18,0.11,0.28,0.14
		c0.03,0.01,0.05,0.01,0.08,0.03c0.03,0.02,0.05,0.04,0.08,0.06c0.04,0.02,0.1,0.03,0.13,0.06c0.01,0.01,0.02,0.02,0.03,0.03
		c0.02,0.01,0.05,0.01,0.07,0.03c0.02,0.02,0.04,0.05,0.06,0.07c0.04,0.03,0.09,0.04,0.13,0.07c0.02,0.01,0.02,0.03,0.04,0.05
		c0.01,0.01,0.03,0.02,0.04,0.02c0.03,0.02,0.06,0.04,0.09,0.06c0.03,0.03,0.06,0.07,0.08,0.11c0.04,0.08,0.07,0.16,0.11,0.23
		c0.04,0.08,0.06,0.17,0.14,0.22c0.03,0.02,0.04,0.03,0.04,0.06c-0.01,0.1-0.04,0.2-0.04,0.3c0,0.11,0.03,0.23,0.06,0.34
		c0.01,0.03,0.02,0.07,0.03,0.1c0.01,0.05,0.01,0.1,0.02,0.14c0.01,0.04,0.02,0.07,0.02,0.11c0,0.05-0.01,0.1-0.02,0.14
		c-0.01,0.05-0.05,0.06-0.05,0.11c-0.01,0.04-0.07,0.13-0.1,0.17c-0.01,0.02-0.03,0.03-0.05,0.05c-0.02,0.02-0.03,0.04-0.04,0.06
		c-0.01,0.02-0.03,0.04-0.05,0.05c-0.04,0.03-0.06,0.08-0.1,0.1c-0.09,0.03-0.14,0.01-0.21,0.07c-0.05,0.04-0.09,0.07-0.13,0.12
		c-0.04,0.04-0.09,0.09-0.15,0.11c-0.06,0.03-0.12,0.08-0.18,0.11c-0.03,0.02-0.07,0.03-0.1,0.05c-0.03,0.02-0.06,0.05-0.1,0.07
		c-0.03,0.02-0.06,0.03-0.1,0.05c-0.05,0.03-0.09,0.05-0.14,0.08c-0.06,0.02-0.11,0.04-0.17,0.06c-0.05,0.02-0.11,0.04-0.16,0.05
		c-0.1,0.02-0.2,0.01-0.3,0.01c-0.04,0-0.1,0-0.13-0.02c-0.03-0.02-0.04-0.05-0.06-0.07c-0.02-0.02-0.19-0.03-0.22-0.05
		c-0.05-0.04-0.12-0.08-0.18-0.11c-0.03-0.02-0.06-0.03-0.09-0.05c-0.05-0.04-0.09-0.06-0.15-0.08c-0.04-0.01-0.04-0.08-0.08-0.08
		c-0.02,0-0.04,0-0.06-0.01c-0.01-0.01-0.02-0.02-0.03-0.03c-0.02-0.01-0.03-0.02-0.05-0.03C55.14,43.76,55.12,43.78,55,43.72z"/>
	<path class="st4" d="M27.46,71.73c0.01-0.03-0.07-0.1-0.09-0.12c-0.03-0.03-0.05-0.05-0.07-0.08c-0.04-0.05-0.07-0.11-0.11-0.16
		c-0.08-0.1-0.11-0.22-0.2-0.31c-0.05-0.05-0.08-0.1-0.12-0.15c-0.02-0.02-0.03-0.03-0.05-0.05c-0.02-0.03-0.04-0.07-0.06-0.1
		c-0.03-0.04-0.05-0.07-0.06-0.11c-0.02-0.06-0.05-0.12-0.08-0.18c-0.04-0.09-0.09-0.21-0.1-0.31c-0.01-0.11-0.04-0.23-0.01-0.34
		c0.02-0.06,0.05-0.11,0.07-0.17c0.01-0.03,0.03-0.05,0.04-0.08c0.01-0.03,0.01-0.06,0.02-0.09c0.04-0.08,0.06-0.18,0.06-0.28
		c0-0.04,0-0.09,0-0.13c0-0.07-0.04-0.13-0.04-0.2c-0.01-0.08-0.02-0.16-0.04-0.24c-0.02-0.1,0.11-0.21,0.16-0.3
		c0.03-0.05,0.06-0.07,0.09-0.11c0.03-0.03,0.04-0.08,0.05-0.11c0.02-0.03,0.03-0.06,0.05-0.1c0.04-0.09,0.11-0.18,0.2-0.24
		c0.04-0.03,0.08-0.07,0.12-0.11c0.13-0.1,0.37-0.09,0.49-0.2c0.08-0.07,0.17-0.14,0.26-0.2c0.08-0.05,0.11-0.09,0.2-0.13
		c0.06-0.02,0.07-0.15,0.13-0.17c0.06-0.02,0.11-0.02,0.17-0.04c0.12-0.04,0.18-0.04,0.29-0.08c0.06-0.02,0.12-0.03,0.17-0.07
		c0.05-0.04,0.09-0.05,0.15-0.02c0.06,0.02,0.12-0.03,0.18-0.03c0.08,0,0.16,0.01,0.24,0c0.04-0.01,0.2,0,0.24,0
		c0.11,0,0.12,0.07,0.23,0.11c0.09,0.03,0.14,0,0.23,0.01c0.06,0.01,0.11,0.02,0.17,0.03c0.17,0.04,0.28,0.17,0.45,0.22
		c0.05,0.01,0.08,0.02,0.12,0.04c0.04,0.03,0.08,0.06,0.12,0.09c0.07,0.04,0.15,0.05,0.21,0.09c0.02,0.02,0.03,0.04,0.05,0.05
		c0.03,0.02,0.08,0.02,0.11,0.05c0.04,0.03,0.06,0.08,0.09,0.11c0.06,0.05,0.13,0.07,0.2,0.11c0.03,0.02,0.03,0.05,0.06,0.07
		c0.02,0.01,0.04,0.02,0.06,0.04c0.05,0.03,0.1,0.06,0.14,0.09c0.05,0.05,0.09,0.11,0.13,0.17c0.06,0.12,0.11,0.24,0.17,0.37
		c0.06,0.13,0.1,0.26,0.22,0.35c0.05,0.04,0.06,0.04,0.06,0.1c-0.01,0.16-0.06,0.31-0.06,0.47c0,0.18,0.04,0.36,0.09,0.53
		c0.01,0.05,0.03,0.1,0.04,0.16c0.01,0.07,0.02,0.15,0.03,0.22c0.01,0.06,0.03,0.11,0.03,0.17c0,0.08-0.02,0.15-0.03,0.23
		c-0.01,0.07-0.07,0.09-0.09,0.16c-0.01,0.07-0.12,0.21-0.15,0.26c-0.02,0.04-0.05,0.05-0.08,0.08c-0.03,0.03-0.04,0.06-0.07,0.09
		c-0.02,0.02-0.05,0.06-0.08,0.08c-0.06,0.05-0.09,0.12-0.16,0.15c-0.14,0.05-0.22,0.02-0.33,0.11c-0.07,0.06-0.14,0.12-0.21,0.18
		c-0.06,0.06-0.15,0.13-0.23,0.18c-0.1,0.05-0.18,0.12-0.28,0.17c-0.05,0.03-0.11,0.05-0.16,0.07c-0.05,0.04-0.1,0.08-0.15,0.11
		c-0.05,0.03-0.1,0.05-0.15,0.08c-0.07,0.04-0.14,0.08-0.23,0.12c-0.09,0.04-0.18,0.06-0.27,0.1c-0.08,0.03-0.16,0.07-0.25,0.08
		c-0.15,0.03-0.32,0.01-0.47,0.01c-0.07,0-0.15,0-0.21-0.04c-0.04-0.03-0.06-0.07-0.1-0.1c-0.03-0.02-0.3-0.05-0.34-0.07
		c-0.08-0.06-0.19-0.12-0.29-0.17c-0.05-0.02-0.09-0.04-0.14-0.08c-0.08-0.06-0.15-0.09-0.24-0.12c-0.07-0.02-0.06-0.12-0.12-0.13
		c-0.03,0-0.06,0-0.09-0.02c-0.01-0.02-0.03-0.03-0.05-0.05c-0.02-0.02-0.05-0.03-0.07-0.04C27.67,71.8,27.64,71.82,27.46,71.73z"/>
	<path class="st4" d="M65.69,70.82c0.01-0.04-0.09-0.13-0.12-0.15c-0.04-0.04-0.06-0.06-0.1-0.11c-0.05-0.07-0.09-0.14-0.14-0.21
		c-0.1-0.13-0.14-0.28-0.25-0.39c-0.06-0.06-0.11-0.13-0.16-0.2c-0.02-0.03-0.04-0.04-0.06-0.07c-0.03-0.04-0.05-0.08-0.07-0.13
		c-0.03-0.05-0.07-0.08-0.08-0.14c-0.02-0.08-0.06-0.16-0.1-0.23c-0.05-0.12-0.12-0.26-0.12-0.39c-0.01-0.14-0.06-0.3-0.01-0.44
		c0.02-0.07,0.06-0.14,0.09-0.22c0.01-0.03,0.04-0.07,0.05-0.1c0.01-0.04,0.01-0.07,0.03-0.11c0.05-0.1,0.08-0.24,0.08-0.35
		c0-0.06,0-0.11,0-0.17c0-0.09-0.05-0.17-0.05-0.25c-0.01-0.1-0.03-0.2-0.05-0.31c-0.02-0.13,0.14-0.27,0.2-0.38
		c0.03-0.06,0.07-0.09,0.12-0.13c0.03-0.03,0.05-0.1,0.07-0.14c0.02-0.04,0.04-0.08,0.06-0.13c0.06-0.12,0.14-0.23,0.25-0.31
		c0.05-0.04,0.1-0.09,0.15-0.13c0.17-0.13,0.48-0.12,0.63-0.26c0.1-0.09,0.21-0.18,0.33-0.25c0.11-0.06,0.14-0.12,0.26-0.17
		c0.07-0.03,0.09-0.2,0.17-0.22c0.07-0.02,0.15-0.02,0.22-0.05c0.15-0.05,0.23-0.05,0.38-0.11c0.08-0.03,0.15-0.04,0.22-0.09
		c0.07-0.05,0.11-0.07,0.2-0.03c0.07,0.03,0.15-0.03,0.23-0.04c0.1,0,0.21,0.02,0.3,0c0.06-0.01,0.25,0,0.31,0
		c0.15,0,0.15,0.09,0.29,0.14c0.11,0.04,0.18,0,0.29,0.02c0.07,0.01,0.14,0.02,0.22,0.04c0.22,0.05,0.36,0.21,0.57,0.28
		c0.06,0.02,0.1,0.02,0.16,0.05c0.06,0.03,0.1,0.08,0.16,0.11c0.08,0.05,0.19,0.07,0.27,0.12c0.03,0.02,0.04,0.05,0.07,0.06
		c0.04,0.03,0.1,0.03,0.14,0.06c0.05,0.04,0.07,0.1,0.12,0.15c0.08,0.07,0.17,0.09,0.25,0.14c0.04,0.03,0.04,0.07,0.08,0.09
		c0.02,0.02,0.05,0.03,0.08,0.05c0.06,0.04,0.12,0.07,0.18,0.12c0.07,0.06,0.12,0.14,0.16,0.21c0.08,0.15,0.15,0.31,0.22,0.47
		c0.07,0.16,0.12,0.33,0.28,0.44c0.07,0.05,0.08,0.05,0.08,0.13c-0.01,0.2-0.07,0.4-0.08,0.6c0,0.23,0.06,0.46,0.12,0.68
		c0.02,0.07,0.04,0.13,0.06,0.2c0.02,0.09,0.02,0.19,0.04,0.28c0.02,0.08,0.04,0.14,0.04,0.22c0,0.1-0.02,0.19-0.04,0.29
		c-0.02,0.1-0.1,0.11-0.11,0.21c-0.01,0.08-0.15,0.26-0.2,0.34c-0.03,0.04-0.06,0.07-0.1,0.11c-0.03,0.03-0.05,0.07-0.09,0.11
		c-0.03,0.03-0.07,0.08-0.1,0.1c-0.08,0.06-0.12,0.16-0.21,0.19c-0.18,0.07-0.28,0.02-0.42,0.15c-0.09,0.08-0.18,0.15-0.26,0.23
		c-0.08,0.08-0.19,0.17-0.29,0.23c-0.13,0.07-0.23,0.15-0.36,0.22c-0.06,0.03-0.14,0.06-0.2,0.1c-0.06,0.05-0.13,0.1-0.2,0.14
		c-0.06,0.04-0.13,0.07-0.2,0.1c-0.09,0.06-0.18,0.11-0.29,0.15c-0.11,0.05-0.23,0.08-0.35,0.12c-0.11,0.04-0.21,0.09-0.32,0.11
		c-0.19,0.04-0.4,0.01-0.6,0.01c-0.09,0-0.19,0-0.27-0.05c-0.05-0.03-0.07-0.09-0.13-0.13c-0.04-0.03-0.39-0.06-0.43-0.09
		c-0.11-0.08-0.24-0.16-0.37-0.21c-0.07-0.03-0.12-0.06-0.18-0.1c-0.1-0.07-0.19-0.11-0.31-0.15c-0.09-0.03-0.08-0.15-0.16-0.17
		c-0.03-0.01-0.08,0-0.11-0.02c-0.02-0.02-0.04-0.04-0.06-0.06c-0.03-0.02-0.06-0.04-0.09-0.05C65.96,70.91,65.92,70.93,65.69,70.82
		z"/>
	<path class="st4" d="M39.3,63.55c0.01-0.03-0.07-0.09-0.09-0.11c-0.03-0.03-0.05-0.05-0.07-0.08c-0.04-0.05-0.06-0.1-0.1-0.15
		c-0.08-0.09-0.1-0.2-0.18-0.29c-0.04-0.04-0.08-0.1-0.12-0.14c-0.01-0.02-0.03-0.03-0.05-0.05c-0.02-0.03-0.03-0.06-0.05-0.09
		c-0.02-0.04-0.05-0.06-0.06-0.1c-0.02-0.06-0.05-0.11-0.07-0.17c-0.04-0.09-0.09-0.19-0.09-0.28c0-0.1-0.04-0.22-0.01-0.32
		c0.02-0.05,0.05-0.11,0.07-0.16c0.01-0.03,0.03-0.05,0.03-0.08c0.01-0.03,0.01-0.05,0.02-0.08c0.04-0.08,0.06-0.17,0.06-0.26
		c0-0.04,0-0.08,0-0.12c0-0.06-0.03-0.12-0.04-0.18c-0.01-0.07-0.02-0.15-0.03-0.22c-0.02-0.1,0.1-0.2,0.15-0.28
		c0.02-0.04,0.05-0.06,0.09-0.1c0.02-0.02,0.03-0.07,0.05-0.1c0.02-0.03,0.03-0.06,0.05-0.09c0.04-0.09,0.1-0.17,0.18-0.23
		c0.04-0.03,0.07-0.07,0.11-0.1c0.12-0.09,0.35-0.08,0.46-0.19c0.07-0.07,0.16-0.13,0.24-0.18c0.08-0.05,0.1-0.09,0.19-0.12
		c0.05-0.02,0.07-0.14,0.12-0.16c0.05-0.01,0.11-0.02,0.16-0.03c0.11-0.03,0.17-0.04,0.27-0.08c0.06-0.02,0.11-0.03,0.16-0.06
		c0.05-0.03,0.08-0.05,0.14-0.02c0.05,0.02,0.11-0.02,0.17-0.03c0.07,0,0.15,0.01,0.22,0c0.04-0.01,0.18,0,0.23,0
		c0.11,0,0.11,0.07,0.21,0.1c0.08,0.03,0.13,0,0.21,0.01c0.05,0.01,0.11,0.02,0.16,0.03c0.16,0.04,0.26,0.16,0.42,0.2
		c0.05,0.01,0.08,0.01,0.11,0.04c0.04,0.02,0.07,0.06,0.11,0.08c0.06,0.03,0.14,0.05,0.2,0.09c0.02,0.01,0.03,0.03,0.05,0.05
		c0.03,0.02,0.07,0.02,0.1,0.04c0.03,0.03,0.05,0.08,0.09,0.11c0.06,0.05,0.13,0.06,0.18,0.11c0.03,0.02,0.03,0.05,0.05,0.07
		c0.02,0.01,0.04,0.02,0.05,0.03c0.04,0.03,0.09,0.05,0.13,0.09c0.05,0.04,0.09,0.1,0.12,0.15c0.06,0.11,0.11,0.23,0.16,0.34
		c0.05,0.12,0.09,0.24,0.2,0.32c0.05,0.03,0.06,0.04,0.06,0.09c-0.01,0.15-0.05,0.29-0.05,0.44c0,0.17,0.04,0.33,0.09,0.49
		c0.01,0.05,0.03,0.1,0.04,0.15c0.01,0.07,0.01,0.14,0.03,0.21c0.01,0.06,0.03,0.1,0.03,0.16c0,0.07-0.02,0.14-0.03,0.21
		c-0.01,0.07-0.07,0.08-0.08,0.15c-0.01,0.06-0.11,0.19-0.14,0.24c-0.02,0.03-0.05,0.05-0.07,0.08c-0.02,0.03-0.04,0.05-0.06,0.08
		c-0.02,0.02-0.05,0.06-0.07,0.08c-0.06,0.04-0.08,0.11-0.15,0.14c-0.13,0.05-0.2,0.02-0.31,0.11c-0.07,0.06-0.13,0.11-0.19,0.17
		c-0.06,0.06-0.14,0.13-0.21,0.16c-0.09,0.05-0.17,0.11-0.26,0.16c-0.05,0.02-0.1,0.04-0.14,0.07c-0.05,0.04-0.09,0.07-0.14,0.1
		c-0.05,0.03-0.09,0.05-0.14,0.07c-0.07,0.04-0.13,0.08-0.21,0.11c-0.08,0.03-0.17,0.06-0.25,0.09c-0.08,0.03-0.15,0.06-0.24,0.08
		c-0.14,0.03-0.29,0.01-0.44,0.01c-0.06,0-0.14,0-0.2-0.04c-0.04-0.03-0.05-0.07-0.09-0.1c-0.03-0.02-0.28-0.05-0.31-0.07
		c-0.08-0.06-0.18-0.12-0.27-0.16c-0.05-0.02-0.09-0.04-0.13-0.07c-0.07-0.05-0.14-0.08-0.23-0.11c-0.06-0.02-0.06-0.11-0.12-0.12
		c-0.02,0-0.06,0-0.08-0.01c-0.01-0.02-0.03-0.03-0.04-0.04c-0.02-0.01-0.04-0.03-0.07-0.04C39.49,63.62,39.47,63.64,39.3,63.55z"/>
	<path class="st5" d="M56.39,32.41c0,1.77-1.43,3.2-3.2,3.2s-3.2-1.43-3.2-3.2c0,1.77-1.43,3.2-3.2,3.2c-1.77,0-3.2-1.43-3.2-3.2"/>
	<path class="st6" d="M77.31,45.16c-0.01,4.98-5.43,8.8-6.84,9.96l0,0.01c-1.2,0.75-2.01,2.08-2.01,3.6c0,2.35,1.91,4.26,4.26,4.26
		c1.3,0,3.87-0.57,5.83-1.33C78.55,56.79,77.96,50.16,77.31,45.16z"/>
	<path class="st6" d="M22.68,45.16c0.01,4.98,5.43,8.8,6.84,9.96l0,0.01c1.2,0.75,2.01,2.08,2.01,3.6c0,2.35-1.91,4.26-4.26,4.26
		c-1.3,0-3.87-0.57-5.83-1.33C21.44,56.79,22.03,50.16,22.68,45.16z"/>
	<path class="st1" d="M28.84,74.48c3.53-2.63,7.46-0.05,10.71,4.32c3.26,4.37,4.61,8.87,1.09,11.5c-3.53,2.63-10.6,2.39-13.86-1.98
		C23.53,83.95,25.31,77.11,28.84,74.48z"/>
	<path class="st1" d="M71.16,74.48c-3.53-2.63-7.46-0.05-10.71,4.32c-3.26,4.37-4.61,8.87-1.09,11.5s10.6,2.39,13.86-1.98
		C76.47,83.95,74.68,77.11,71.16,74.48z"/>
</g>
<g>
	<g>
		<g>
			<path class="st2" d="M145.01,74.07c-5.71-0.67-11.56-0.93-16.95,1.47c-4.12,1.83-8.17,5.56-8.05,10.42
				c0.1,4.07,3.94,7.3,7.5,8.57c2.33,0.83,4.82,1.15,7.25,1.51c2.44,0.36,4.89,0.66,7.34,0.91c20.73,2.05,41.58,0.21,62.12-2.81
				c20.55-3.02,40.92-7.22,61.5-10.02c21.21-2.88,42.48-3.62,63.94-3.12c21.77,0.51,43.47,2.26,65.15,4.2
				c2.77,0.25,5.55,0.5,8.32,0.75c2.22,0.2,4.76-0.27,6.51-1.74c1.33-1.12,1.2-2.76-0.79-2.95c-21.25-1.93-42.51-3.82-63.83-4.72
				c-21.17-0.9-42.4-0.78-63.5,1.22c-19.84,1.88-39.42,5.67-59.05,9c-19.38,3.29-38.64,6.19-58.07,6.23
				c-9.41,0.02-19.15-0.4-28.37-2.39c-3.03-0.65-6.66-3.2-6.8-6.76c-0.06-1.59,0.71-3.15,1.75-4.3c0.13-0.15,0.37-0.36,0.67-0.61
				c0.07-0.06,0.6-0.46,0.12-0.1c0.05-0.04,0.62-0.35,0.16-0.11c-0.49,0.25,0.23-0.09,0.28-0.11c-0.7,0.24,0.07-0.02,0.19-0.05
				c0.01,0,0.79-0.16,0.33-0.08c-0.44,0.08,0.86-0.09,0.82-0.09c-0.44,0.04,0.66-0.01,0.81-0.02c0.58,0,1.16,0.01,1.74,0.04
				c0.98,0.06,2.14,0.2,3.19,0.32c2.19,0.26,4.79-0.29,6.51-1.74C147.17,75.87,146.98,74.3,145.01,74.07L145.01,74.07z"/>
		</g>
	</g>
	<g>
		<g>
			<path class="st7" d="M141.7,70.76c-5.71-0.67-11.56-0.93-16.95,1.47c-4.12,1.83-8.17,5.56-8.05,10.42c0.1,4.07,3.94,7.3,7.5,8.57
				c2.33,0.83,4.82,1.15,7.25,1.51c2.44,0.36,4.89,0.66,7.34,0.91c20.73,2.05,41.58,0.21,62.12-2.81
				c20.55-3.02,40.92-7.22,61.5-10.02c21.21-2.88,42.48-3.62,63.94-3.12c21.77,0.51,43.47,2.26,65.15,4.2
				c2.77,0.25,5.55,0.5,8.32,0.75c2.22,0.2,4.76-0.27,6.51-1.74c1.33-1.12,1.2-2.76-0.79-2.95c-21.25-1.93-42.51-3.82-63.83-4.72
				c-21.17-0.9-42.4-0.78-63.5,1.22c-19.84,1.88-39.42,5.67-59.05,9c-19.38,3.29-38.64,6.19-58.07,6.23
				c-9.41,0.02-19.15-0.4-28.37-2.39c-3.03-0.65-6.66-3.2-6.8-6.76c-0.06-1.59,0.71-3.15,1.75-4.3c0.13-0.15,0.37-0.36,0.67-0.61
				c0.07-0.06,0.6-0.46,0.12-0.1c0.05-0.04,0.62-0.35,0.16-0.11c-0.49,0.25,0.23-0.09,0.28-0.11c-0.7,0.24,0.07-0.02,0.19-0.05
				c0.01,0,0.79-0.16,0.33-0.08c-0.44,0.08,0.86-0.09,0.82-0.09c-0.44,0.04,0.66-0.01,0.81-0.02c0.58,0,1.16,0.01,1.74,0.04
				c0.98,0.06,2.14,0.2,3.19,0.32c2.19,0.26,4.79-0.29,6.51-1.74C143.86,72.56,143.67,70.99,141.7,70.76L141.7,70.76z"/>
		</g>
	</g>
	<g>
		<path class="st2" d="M178.41,26.64c0-2.36,0.43-4.66,1.3-6.9c0.87-2.24,2.15-4.07,3.83-5.47c0.5-0.39,0.57-0.86,0.21-1.39
			c-0.37-0.53-0.91-0.97-1.64-1.3c-0.73-0.34-1.51-0.52-2.36-0.55c-0.84-0.03-1.46,0.21-1.85,0.72c-0.79,1.01-1.26,1.71-1.43,2.1
			c-0.17,0.39-0.37,0.81-0.59,1.26c-0.79-1.46-1.87-2.78-3.24-3.95c-1.37-1.18-3.13-1.91-5.26-2.19c-2.3-0.17-4.63,0.13-6.98,0.88
			c-2.36,0.76-4.5,1.91-6.44,3.45c-1.94,1.54-3.51,3.44-4.71,5.68c-1.21,2.24-1.78,4.8-1.72,7.66c0,1.74,0.25,3.27,0.76,4.59
			c0.5,1.32,1.19,2.54,2.06,3.66c0.87,1.12,1.91,2.19,3.11,3.2c1.21,1.01,2.54,2.08,4,3.2c0.5,0.39,1.01,0.8,1.52,1.22
			c0.5,0.42,1.04,0.83,1.6,1.22c1.46,1.35,2.72,3.02,3.79,5.01c1.07,1.99,1.79,4.05,2.19,6.19c0.11,0.73,0.18,1.4,0.21,2.02
			c0.03,0.62,0.01,1.23-0.04,1.85c-0.11,1.57-0.49,2.93-1.14,4.08c-0.65,1.15-1.43,2.1-2.36,2.86c-0.92,0.76-1.95,1.33-3.07,1.72
			c-1.12,0.39-2.24,0.59-3.37,0.59c-1.63,0-3.18-0.45-4.67-1.35c-1.49-0.9-2.62-2.58-3.07-4.21l0,0c-0.11-0.73-0.18-1.53-0.21-2.4
			c-0.03-0.87,0.07-1.75,0.3-2.65c0.34-1.12,0.67-1.98,1.01-2.57c0.34-0.59,0.79-1.36,1.35-2.31c-2.13-0.62-4-0.27-5.6,1.05
			c-1.6,1.32-2.59,3.13-2.99,5.43c-0.34,1.85-0.3,3.5,0.13,4.96c0.42,1.46,1.15,2.69,2.19,3.7c1.04,1.01,2.34,1.81,3.91,2.4
			c1.57,0.59,3.34,0.91,5.3,0.97c2.3,0.05,4.49-0.27,6.56-0.97c2.07-0.7,3.94-1.68,5.59-2.94c1.65-1.26,3.04-2.73,4.17-4.42
			c1.12-1.68,2.07-3.81,2.52-5.72l0,0c0.45-2.53,0.24-5.13-0.63-7.83c-0.87-2.69-2.62-5.3-5.26-7.83L164.02,38
			c-0.34-0.28-0.66-0.56-0.97-0.84c-0.31-0.28-0.63-0.56-0.97-0.84c-0.95-0.84-1.89-1.7-2.82-2.57c-0.92-0.87-1.74-1.79-2.44-2.78
			c-0.7-0.98-1.28-2.01-1.72-3.07c-0.45-1.07-0.65-2.21-0.59-3.45c0.11-1.91,0.53-3.65,1.26-5.22c0.73-1.57,1.64-2.92,2.73-4.04
			c1.09-1.12,2.31-1.98,3.66-2.57s2.75-0.83,4.21-0.72c1.18,0.11,2.23,0.42,3.16,0.93c0.93,0.5,1.72,1.14,2.4,1.89
			s1.22,1.6,1.64,2.52c0.42,0.93,0.72,1.84,0.88,2.73c-0.11,0.45-0.25,1.02-0.42,1.72c-0.17,0.7-0.31,1.43-0.42,2.19
			s-0.21,1.5-0.3,2.23c-0.08,0.73-0.07,1.35,0.04,1.85c0,0.56,0.24,1.01,0.72,1.35c0.48,0.34,1.02,0.5,1.64,0.5
			c0.67,0,1.3-0.25,1.89-0.76C178.2,28.57,178.46,27.76,178.41,26.64z"/>
		<path class="st2" d="M317.33,17.3v-0.17h0.42c0.56,0.06,1.09,0.1,1.6,0.13c0.5,0.03,1.04,0.04,1.6,0.04
			c0.45,0,1.06,0.06,1.85,0.17c0.78,0.11,1.68,0.22,2.69,0.34c2.07,0.28,4.46,0.58,7.15,0.88c2.69,0.31,5.44,0.46,8.25,0.46
			c1.91,0,3.8-0.11,5.68-0.34c1.88-0.22,3.59-0.6,5.13-1.14c1.54-0.53,2.86-1.27,3.95-2.23c1.09-0.95,1.86-2.16,2.31-3.62
			c0.28-0.9,0.27-1.67-0.04-2.31c-0.31-0.65-0.76-1.14-1.35-1.47c-0.59-0.34-1.22-0.5-1.89-0.5s-1.23,0.2-1.68,0.59
			c1.4,0.9,2.07,1.71,2.02,2.44c-0.06,0.62-0.6,1.12-1.64,1.52c-1.04,0.39-2.43,0.72-4.17,0.97c-1.74,0.25-3.73,0.42-5.97,0.51
			c-2.24,0.08-4.57,0.12-6.98,0.12c-2.58,0-5.19-0.04-7.83-0.12c-2.64-0.08-5.1-0.18-7.41-0.3L318.59,13
			c-1.4-0.11-2.96-0.24-4.67-0.38c-1.71-0.14-3.46-0.21-5.26-0.21c-1.63,0-3.24,0.08-4.84,0.25c-1.6,0.17-3.11,0.45-4.54,0.84
			c-1.43,0.39-2.75,0.94-3.95,1.64c-1.21,0.7-2.17,1.59-2.9,2.65c-0.45,0.51-0.73,1.04-0.84,1.6c-0.11,0.56-0.1,0.98,0.04,1.26
			c0.14,0.28,0.41,0.39,0.8,0.34c0.39-0.06,0.93-0.45,1.6-1.18c1.52-1.51,3.21-2.54,5.09-3.07c1.88-0.53,3.88-0.8,6.02-0.8
			c1.52,0,3.04,0.08,4.59,0.25c1.54,0.17,3.1,0.37,4.67,0.59l-0.08,0.17c-1.07,0.11-1.66,0.59-1.77,1.43
			c-0.39,2.81-0.95,5.85-1.68,9.13c-0.73,3.28-1.52,6.59-2.36,9.93c-0.84,3.34-1.68,6.61-2.52,9.8c-0.84,3.2-1.57,6.11-2.19,8.75
			c-0.22,1.01-0.48,2.08-0.76,3.2c-0.28,1.12-0.55,2.22-0.8,3.28c-0.25,1.07-0.45,2.03-0.59,2.9c-0.14,0.87-0.18,1.56-0.12,2.06
			c0.05,0.28,0.21,0.62,0.46,1.01c0.25,0.39,0.56,0.77,0.93,1.14c0.36,0.36,0.78,0.67,1.26,0.92c0.47,0.25,0.97,0.38,1.47,0.38
			c0.51,0,1-0.28,1.47-0.84s0.85-1.4,1.14-2.52c1.4-5.67,3.04-12.52,4.92-20.57c1.88-8.05,3.69-17.4,5.43-28.06
			C318.7,18.28,318.28,17.75,317.33,17.3z"/>
		<path class="st2" d="M328.06,19.86c-0.87,0.25-1.61,0.67-2.23,1.26c-0.62,0.59-1.11,1.29-1.47,2.1c-0.37,0.81-0.57,1.64-0.63,2.48
			c-0.06,0.73-0.03,1.4,0.08,2.02c0.11,0.62,0.25,1.15,0.42,1.6c0.28,0.79,0.67,1.22,1.18,1.3c0.5,0.08,0.95-0.18,1.35-0.8
			c0.45-0.73,0.77-1.29,0.97-1.68c0.2-0.39,0.63-0.98,1.3-1.77c0.56-0.62,1.12-1.26,1.68-1.94c0.56-0.67,0.98-1.32,1.26-1.94
			c0.28-0.62,0.38-1.16,0.29-1.64c-0.08-0.48-0.49-0.83-1.22-1.05C329.92,19.6,328.93,19.61,328.06,19.86z"/>
		<path class="st2" d="M370.34,59.96c-1.01,0.67-2.06,1.25-3.16,1.73c-1.09,0.47-2.12,0.35-3.07-0.38c-0.79-0.67-1.32-1.84-1.6-3.49
			c-0.28-1.65-0.34-3.55-0.17-5.68c0.11-1.57,0.36-3.17,0.76-4.8c0.39-1.63,0.84-3.17,1.35-4.63l1.85-4.8
			c0.34-0.67,0.39-1.26,0.17-1.77c-0.22-0.5-0.62-0.95-1.18-1.35c-0.56-0.39-1.24-0.69-2.02-0.88c-0.79-0.2-1.54-0.29-2.27-0.29
			c-1.29,0-2.24,0.22-2.86,0.84l0,0c-0.5,0.79-1.15,1.98-1.94,3.58c-0.79,1.6-1.6,3.34-2.44,5.22c-0.84,1.88-1.64,3.75-2.4,5.6
			c-0.76,1.85-1.33,3.39-1.72,4.63c-0.11,0.22-0.18,0.39-0.21,0.5c-0.03,0.11-0.07,0.22-0.13,0.34l-0.08,0.17
			c0,0.06-0.02,0.13-0.04,0.21c-0.03,0.08-0.04,0.15-0.04,0.21c-0.22-0.17-0.28-0.95-0.17-2.36c0.11-1.4,0.36-3,0.76-4.8
			c0.39-1.8,0.91-3.6,1.56-5.43c0.64-1.82,1.42-3.24,2.31-4.25c0.62-0.73,0.8-1.5,0.55-2.31c-0.25-0.81-0.73-1.49-1.43-2.02
			c-0.7-0.53-1.51-0.87-2.44-1.01c-0.93-0.14-1.75,0.1-2.48,0.72c-0.67,0.79-1.43,1.82-2.27,3.11c-0.84,1.29-1.71,2.72-2.61,4.29
			c-0.9,1.57-1.75,3.25-2.57,5.05c-0.81,1.8-1.56,3.62-2.23,5.47h-0.17c0.22-1.4,0.63-3.28,1.22-5.64c0.59-2.36,1.3-4.71,2.14-6.9
			l0,0c0.34-0.9,0.69-1.73,1.05-2.48c0.36-0.76,0.74-1.44,1.14-2.06c0.11-0.17,0.08-0.35-0.08-0.55c-0.17-0.2-0.43-0.36-0.8-0.5
			c-0.37-0.14-0.8-0.27-1.3-0.38c-0.5-0.11-1.04-0.17-1.6-0.17c-0.67,0-1.36,0.15-2.06,0.46c-0.7,0.31-1.22,0.77-1.56,1.39
			c-0.22,0.73-0.56,1.95-1.01,3.66c-0.45,1.71-0.9,3.55-1.35,5.51c-0.42,1.84-0.77,3.57-1.07,5.24c-0.22,0.47-0.43,0.94-0.66,1.41
			c-0.65,1.35-1.33,2.55-2.06,3.62c-0.73,1.07-1.52,1.91-2.36,2.52c-0.84,0.62-1.74,0.81-2.69,0.59c-0.84-0.17-1.4-0.72-1.68-1.64
			c-0.28-0.93-0.37-2.03-0.25-3.32c0.11-1.35,0.38-2.82,0.8-4.42c0.42-1.6,0.85-3.13,1.3-4.59c0.45-1.46,0.9-2.75,1.35-3.87
			c0.45-1.12,0.76-1.91,0.93-2.36c0.39-0.73,0.17-1.26-0.67-1.6c-0.84-0.34-1.74-0.5-2.69-0.5c-0.73,0-1.42,0.08-2.06,0.25
			c-0.65,0.17-1.02,0.45-1.14,0.84c-0.34,0.67-0.7,1.54-1.09,2.61c-0.39,1.07-0.76,2.23-1.09,3.49c-0.34,1.26-0.65,2.57-0.93,3.91
			c-0.28,1.35-0.47,2.64-0.59,3.87c-0.11,1.8-0.03,3.49,0.25,5.09c0.28,1.6,0.9,2.85,1.85,3.74c0.79,0.67,1.57,1.14,2.36,1.39
			c0.79,0.25,1.74,0.38,2.86,0.38c1.74,0,3.32-0.55,4.75-1.64c1.43-1.09,2.69-2.43,3.79-4c0,0,0.01-0.01,0.01-0.01
			c0.09,0.1,0.14,0.21,0.24,0.31c0.59,0.59,1.25,1.08,1.98,1.47c0.73,0.39,1.4,0.65,2.02,0.76c0.62,0.11,1.04,0,1.26-0.34v0.08
			c1.29-3.98,2.55-7.24,3.79-9.76s2.33-4.32,3.28-5.39l0.34,0.08c-0.34,1.12-0.65,2.29-0.93,3.49c-0.28,1.21-0.55,2.37-0.8,3.49
			c-0.25,1.12-0.46,2.12-0.63,2.99c-0.17,0.87-0.28,1.53-0.34,1.98c-0.06,0.62,0.24,1.17,0.88,1.64c0.65,0.48,1.39,0.86,2.23,1.14
			c0.84,0.28,1.68,0.45,2.52,0.5c0.84,0.06,1.43-0.05,1.77-0.34c0.62-1.4,1.23-2.82,1.85-4.25c0.62-1.43,1.22-2.79,1.81-4.08
			c0.59-1.29,1.12-2.48,1.6-3.58c0.47-1.09,0.88-1.98,1.22-2.65c0.22-0.51,0.48-0.98,0.76-1.43c0.28-0.45,0.53-0.8,0.76-1.05
			c0.22-0.25,0.41-0.38,0.55-0.38c0.14,0,0.18,0.22,0.13,0.67c0,0.5-0.17,1.37-0.51,2.61c-1.12,3.48-1.79,6.68-2.02,9.59
			c-0.28,3.2-0.03,5.92,0.76,8.16c0.79,2.24,2.22,3.76,4.29,4.54c1.23,0.5,2.37,0.59,3.41,0.25c1.04-0.34,1.95-0.84,2.73-1.51
			c0.78-0.67,1.42-1.4,1.89-2.19c0.48-0.79,0.77-1.4,0.88-1.85L370.34,59.96L370.34,59.96z"/>
		<path class="st2" d="M288.93,19.19c-0.2-0.59-0.55-1.04-1.05-1.35c-0.5-0.31-1.09-0.38-1.77-0.21c0.34,1.18,0.03,2.19-0.93,3.03
			c-0.95,0.84-2.27,1.54-3.95,2.1c-1.68,0.56-3.56,0.98-5.64,1.26c-2.08,0.28-4.07,0.42-5.98,0.42c-1.23,0-2.34-0.05-3.32-0.17
			c-0.98-0.11-1.72-0.28-2.23-0.51l1.01-2.02l0.34-0.84c0.17-0.51,0.17-0.97,0-1.39c-0.17-0.42-0.42-0.77-0.76-1.05
			c-0.34-0.28-0.73-0.49-1.18-0.63c-0.45-0.14-0.87-0.21-1.26-0.21c-0.67,0-1.24,0.07-1.68,0.21c-0.45,0.14-0.86,0.42-1.22,0.84
			c-0.37,0.42-0.75,1.05-1.14,1.89c-0.39,0.84-0.87,1.96-1.43,3.37l-6.48-0.84c-1.29-0.22-2.43-0.39-3.41-0.5
			c-0.98-0.11-2.09-0.14-3.32-0.08c-2.36-0.05-4.01,0.32-4.96,1.14c-0.95,0.81-1.52,1.72-1.68,2.73c0.06,0.22,0.11,0.46,0.17,0.72
			c0.06,0.25,0.22,0.27,0.5,0.04c1.07-0.67,2.1-1.15,3.11-1.43c1.01-0.28,2.08-0.42,3.2-0.42c1.01,0,2.05,0.1,3.11,0.3
			c1.07,0.2,2.19,0.41,3.37,0.63c0.56,0.11,1.09,0.22,1.6,0.34c0.5,0.11,1.07,0.22,1.68,0.34l2.27,0.59l-1.43,5.22
			c-0.22,0.67-0.42,1.42-0.59,2.23c-0.17,0.81-0.37,1.64-0.59,2.48l-0.08,0.34c-0.5,2.24-0.97,4.57-1.39,6.98
			c-0.32,1.81-0.54,3.39-0.71,4.85c-0.8,1.25-1.66,2.36-2.61,3.27c-2.13,2.05-4.21,3.35-6.23,3.91c-0.79,0.17-1.6,0.25-2.27,0.25
			c-1.8,0-3.03-0.6-3.7-1.81c-0.67-1.21-0.95-2.65-0.84-4.33c0.11-0.73,0.28-1.49,0.5-2.27c0.22-0.78,0.64-1.51,1.26-2.19
			c0.34,0.39,0.77,0.62,1.3,0.67c0.53,0.06,1.08,0.08,1.64,0.08c1.07,0,2.13-0.28,3.2-0.84c1.07-0.56,2.03-1.3,2.9-2.23
			c0.87-0.93,1.6-1.95,2.19-3.07c0.59-1.12,0.94-2.24,1.05-3.37c0.11-1.18-0.2-2.3-0.93-3.37c-0.28-0.51-0.76-0.88-1.43-1.14
			c-0.67-0.25-1.43-0.38-2.27-0.38c-0.79,0-1.66,0.13-2.61,0.38c-0.96,0.25-1.91,0.69-2.86,1.3c-1.35,0.79-2.58,1.77-3.7,2.95
			c-1.12,1.18-2.1,2.48-2.94,3.91c-0.84,1.43-1.53,2.93-2.06,4.5c-0.42,1.23-0.66,2.45-0.82,3.68c-0.81,1.28-1.69,2.41-2.67,3.35
			c-2.13,2.05-4.21,3.35-6.23,3.91c-0.79,0.17-1.6,0.25-2.27,0.25c-1.8,0-3.03-0.6-3.7-1.81c-0.67-1.21-0.95-2.65-0.84-4.33
			c0.11-0.73,0.28-1.49,0.5-2.27c0.22-0.78,0.64-1.51,1.26-2.19c0.34,0.39,0.77,0.62,1.3,0.67c0.53,0.06,1.08,0.08,1.64,0.08
			c1.07,0,2.13-0.28,3.2-0.84c1.07-0.56,2.03-1.3,2.9-2.23c0.87-0.93,1.6-1.95,2.19-3.07c0.59-1.12,0.94-2.24,1.05-3.37
			c0.11-1.18-0.2-2.3-0.93-3.37c-0.28-0.51-0.76-0.88-1.43-1.14c-0.67-0.25-1.43-0.38-2.27-0.38c-0.79,0-1.66,0.13-2.61,0.38
			c-0.96,0.25-1.91,0.69-2.86,1.3c-1.35,0.79-2.58,1.77-3.7,2.95c-1.12,1.18-2.1,2.48-2.94,3.91c-0.84,1.43-1.53,2.93-2.06,4.5
			c-0.33,0.97-0.55,1.95-0.72,2.92c-0.14,0.12-0.27,0.27-0.42,0.36c-0.62,0.28-1.26,0.44-1.94,0.46c-0.67,0.03-1.26-0.13-1.77-0.46
			c0.62-1.18,1.23-2.38,1.85-3.62s1.16-2.43,1.64-3.58c0.48-1.15,0.88-2.21,1.22-3.2c0.34-0.98,0.53-1.78,0.59-2.4
			c0.11-0.95-0.28-1.81-1.18-2.57c-0.9-0.76-1.82-1.14-2.78-1.14c-1.07,0-1.71,0.56-1.94,1.68c-0.62,3.42-1.49,6.93-2.61,10.52
			c-1.12,3.59-2.66,6.87-4.63,9.84c-0.9,1.4-1.77,2.1-2.61,2.1c-0.39,0-0.69-0.22-0.88-0.67c-0.2-0.45-0.24-1.23-0.13-2.36
			c0.11-1.07,0.31-2.29,0.59-3.66c0.28-1.37,0.6-2.76,0.97-4.17c0.36-1.4,0.77-2.75,1.22-4.04c0.45-1.29,0.9-2.38,1.35-3.28
			c0.06-0.45-0.29-0.92-1.05-1.43c-0.45-0.3-1.53-0.57-2.48-0.73c-0.69-0.11-1.3,0.07-1.47,0.14c-0.42,0.17-0.75,0.56-0.97,1.18
			c0,0-0.37,0.96-0.77,2c-0.52,1.38-1.12,3.03-1.34,3.89c-0.39,1.51-0.7,3.08-0.92,4.71c-0.22,0.5-0.51,1.26-0.84,2.27
			c-0.34,1.01-0.73,2.02-1.18,3.03c-0.45,1.01-0.97,1.89-1.56,2.65c-0.59,0.76-1.25,1.14-1.98,1.14c-1.12,0-1.6-1.29-1.43-3.87
			c0.11-1.07,0.36-2.47,0.76-4.21c0.39-1.74,0.87-3.53,1.43-5.39c0.56-1.85,1.12-3.62,1.68-5.3c0.56-1.68,1.07-3,1.52-3.95
			c0.05-0.45-0.24-0.9-0.88-1.35c-0.65-0.45-1.39-0.67-2.23-0.67c-0.56,0-1.17,0.13-1.81,0.38c-0.65,0.25-1.19,0.66-1.64,1.22
			l-0.42,1.26c-0.22,0.84-0.52,1.89-0.88,3.16c-0.36,1.26-0.72,2.61-1.05,4.04c-0.34,1.43-0.64,2.89-0.92,4.37
			c-0.28,1.49-0.48,2.85-0.59,4.08c-0.06,0.45-0.08,0.88-0.08,1.3c0,0.42,0,0.83,0,1.22c0.06,0.84,0.31,1.67,0.76,2.48
			c0.45,0.81,0.97,1.54,1.56,2.19c0.59,0.65,1.25,1.16,1.98,1.56c0.73,0.39,1.43,0.56,2.1,0.51c0.73-0.11,1.35-0.35,1.85-0.72
			c0.51-0.37,0.97-0.79,1.39-1.26c0.42-0.47,0.83-0.99,1.22-1.56c0.39-0.56,0.81-1.09,1.26-1.6c0.22,0.73,0.67,1.4,1.35,2.02
			c0.67,0.62,1.42,1.17,2.23,1.64c0.81,0.48,1.64,0.84,2.48,1.09c0.84,0.25,1.54,0.35,2.1,0.3c0.34,0,0.8-0.28,1.39-0.84
			c0.59-0.56,1.21-1.28,1.85-2.15c0.64-0.87,1.27-1.82,1.89-2.86c0.62-1.04,1.15-2.06,1.6-3.07c0.28,0.17,0.6,0.32,0.97,0.46
			c0.36,0.14,0.72,0.27,1.05,0.38c1.2-0.03,2.29-0.2,3.27-0.52c0.01,0.84,0.08,1.66,0.27,2.45c0.28,1.18,0.8,2.22,1.56,3.11
			c0.76,0.9,1.74,1.63,2.94,2.19c1.21,0.56,2.71,0.84,4.5,0.84c1.57,0,3.24-0.31,5.01-0.93c1.77-0.62,3.48-1.58,5.13-2.9
			c0.77-0.62,1.51-1.33,2.22-2.1c0.29,1.09,0.77,2.06,1.48,2.9c0.76,0.9,1.74,1.63,2.94,2.19c1.21,0.56,2.71,0.84,4.5,0.84
			c1.57,0,3.24-0.31,5.01-0.93c1.77-0.62,3.48-1.58,5.13-2.9c0.63-0.5,1.22-1.11,1.82-1.72c0.14,1.21,0.44,2.17,0.92,2.86
			c0.9,1.29,2.36,2.13,4.37,2.52c2.13,0.45,3.96,0.17,5.47-0.84c1.52-1.01,2.89-2.66,4.12-4.96c0.67-1.29,1.3-2.78,1.89-4.46
			c0.59-1.68,1.19-3.56,1.81-5.64c0.11-0.45,0.05-0.83-0.17-1.14c-0.22-0.31-0.5-0.5-0.84-0.59c-0.34-0.08-0.67-0.04-1.01,0.13
			c-0.34,0.17-0.59,0.53-0.76,1.09c-0.45,1.63-0.93,3.14-1.43,4.55c-0.5,1.4-1.07,2.66-1.68,3.79c-0.95,1.85-1.91,3.31-2.86,4.37
			c-0.95,1.07-1.78,1.63-2.48,1.68c-0.7,0.06-1.23-0.43-1.6-1.47c-0.37-1.04-0.44-2.73-0.21-5.09c0.22-2.41,0.62-4.88,1.18-7.41
			c0.56-2.52,1.18-4.88,1.85-7.07c0.67-2.19,1.33-4.08,1.98-5.68c0.64-1.6,1.14-2.71,1.47-3.32l2.36,0.25
			c0.56,0.11,1.3,0.21,2.23,0.3c0.92,0.08,2.48,0.15,4.67,0.21c3.7,0.11,6.93-0.31,9.68-1.26c2.75-0.95,4.71-2.24,5.89-3.87
			c0.62-0.84,1.01-1.67,1.18-2.48C289.14,20.48,289.13,19.78,288.93,19.19z M239.91,41.4c0.5-0.76,1.09-1.52,1.77-2.27
			c0.67-0.76,1.36-1.42,2.06-1.98c0.7-0.56,1.22-0.84,1.56-0.84h0.34c0.45,0.45,0.67,0.98,0.67,1.6c-0.06,0.62-0.28,1.29-0.67,2.02
			c-0.39,0.73-0.86,1.4-1.39,2.02c-0.53,0.62-1.11,1.15-1.73,1.6c-0.62,0.45-1.21,0.67-1.77,0.67c-0.22,0-0.58-0.07-1.05-0.21
			c-0.48-0.14-0.69-0.43-0.63-0.88C239.13,42.74,239.41,42.16,239.91,41.4z M218.63,41.4c0.5-0.76,1.09-1.52,1.77-2.27
			c0.67-0.76,1.36-1.42,2.06-1.98c0.7-0.56,1.22-0.84,1.56-0.84h0.34c0.45,0.45,0.67,0.98,0.67,1.6c-0.06,0.62-0.28,1.29-0.67,2.02
			c-0.39,0.73-0.86,1.4-1.39,2.02c-0.53,0.62-1.11,1.15-1.73,1.6c-0.62,0.45-1.21,0.67-1.77,0.67c-0.22,0-0.58-0.07-1.05-0.21
			c-0.48-0.14-0.69-0.43-0.63-0.88C217.84,42.74,218.12,42.16,218.63,41.4z"/>
		<path class="st2" d="M392.68,43.47c-0.37-0.22-0.77-0.34-1.22-0.34c-0.62,0-1.09,0.37-1.43,1.09c-1.35,3.7-3.08,6.58-5.22,8.62
			s-4.21,3.35-6.23,3.91c-0.79,0.17-1.6,0.25-2.27,0.25c-1.8,0-3.03-0.6-3.7-1.81c-0.67-1.21-0.95-2.65-0.84-4.33
			c0.11-0.73,0.28-1.49,0.5-2.27c0.22-0.78,0.64-1.51,1.26-2.19c0.34,0.39,0.77,0.62,1.3,0.67c0.53,0.06,1.08,0.08,1.64,0.08
			c1.07,0,2.13-0.28,3.2-0.84c1.07-0.56,2.03-1.3,2.9-2.23c0.87-0.93,1.6-1.95,2.19-3.07c0.59-1.12,0.94-2.24,1.05-3.37
			c0.11-1.18-0.2-2.3-0.93-3.37c-0.28-0.51-0.76-0.88-1.43-1.14c-0.67-0.25-1.43-0.38-2.27-0.38c-0.79,0-1.66,0.13-2.61,0.38
			c-0.96,0.25-1.91,0.69-2.86,1.3c-1.35,0.79-2.58,1.77-3.7,2.95c-1.12,1.18-2.1,2.48-2.94,3.91c-0.84,1.43-1.53,2.93-2.06,4.5
			c-0.53,1.57-0.85,3.14-0.97,4.71c-0.11,1.29-0.03,2.53,0.25,3.7c0.28,1.18,0.8,2.22,1.56,3.11c0.76,0.9,1.74,1.63,2.94,2.19
			c1.21,0.56,2.71,0.84,4.5,0.84c1.57,0,3.24-0.31,5.01-0.93c1.77-0.62,3.48-1.58,5.13-2.9c1.65-1.32,3.17-3,4.54-5.05
			s2.45-4.5,3.24-7.36C393.23,43.92,393.05,43.69,392.68,43.47z M376.23,41.4c0.5-0.76,1.09-1.52,1.77-2.27
			c0.67-0.76,1.36-1.42,2.06-1.98c0.7-0.56,1.22-0.84,1.56-0.84h0.34c0.45,0.45,0.67,0.98,0.67,1.6c-0.06,0.62-0.28,1.29-0.67,2.02
			c-0.39,0.73-0.86,1.4-1.39,2.02c-0.53,0.62-1.11,1.15-1.73,1.6c-0.62,0.45-1.21,0.67-1.77,0.67c-0.22,0-0.58-0.07-1.05-0.21
			c-0.48-0.14-0.69-0.43-0.63-0.88C375.44,42.74,375.73,42.16,376.23,41.4z"/>
	</g>
	<g>
		<path class="st7" d="M176.45,24.68c0-2.36,0.43-4.66,1.3-6.9c0.87-2.24,2.15-4.07,3.83-5.47c0.5-0.39,0.57-0.86,0.21-1.39
			c-0.37-0.53-0.91-0.97-1.64-1.3c-0.73-0.34-1.51-0.52-2.36-0.55c-0.84-0.03-1.46,0.21-1.85,0.72c-0.79,1.01-1.26,1.71-1.43,2.1
			c-0.17,0.39-0.37,0.81-0.59,1.26c-0.79-1.46-1.87-2.78-3.24-3.95c-1.37-1.18-3.13-1.91-5.26-2.19c-2.3-0.17-4.63,0.13-6.98,0.88
			c-2.36,0.76-4.5,1.91-6.44,3.45c-1.94,1.54-3.51,3.44-4.71,5.68c-1.21,2.24-1.78,4.8-1.72,7.66c0,1.74,0.25,3.27,0.76,4.59
			c0.5,1.32,1.19,2.54,2.06,3.66c0.87,1.12,1.91,2.19,3.11,3.2c1.21,1.01,2.54,2.08,4,3.2c0.5,0.39,1.01,0.8,1.52,1.22
			c0.5,0.42,1.04,0.83,1.6,1.22c1.46,1.35,2.72,3.02,3.79,5.01c1.07,1.99,1.79,4.05,2.19,6.19c0.11,0.73,0.18,1.4,0.21,2.02
			c0.03,0.62,0.01,1.23-0.04,1.85c-0.11,1.57-0.49,2.93-1.14,4.08c-0.65,1.15-1.43,2.1-2.36,2.86c-0.92,0.76-1.95,1.33-3.07,1.72
			c-1.12,0.39-2.24,0.59-3.37,0.59c-1.63,0-3.18-0.45-4.67-1.35c-1.49-0.9-2.62-2.58-3.07-4.21l0,0c-0.11-0.73-0.18-1.53-0.21-2.4
			c-0.03-0.87,0.07-1.75,0.3-2.65c0.34-1.12,0.67-1.98,1.01-2.57c0.34-0.59,0.79-1.36,1.35-2.31c-2.13-0.62-4-0.27-5.6,1.05
			c-1.6,1.32-2.59,3.13-2.99,5.43c-0.34,1.85-0.3,3.5,0.13,4.96c0.42,1.46,1.15,2.69,2.19,3.7c1.04,1.01,2.34,1.81,3.91,2.4
			c1.57,0.59,3.34,0.91,5.3,0.97c2.3,0.05,4.49-0.27,6.56-0.97c2.07-0.7,3.94-1.68,5.59-2.94c1.65-1.26,3.04-2.73,4.17-4.42
			c1.12-1.68,2.07-3.81,2.52-5.72l0,0c0.45-2.53,0.24-5.13-0.63-7.83c-0.87-2.69-2.62-5.3-5.26-7.83l-3.37-3.37
			c-0.34-0.28-0.66-0.56-0.97-0.84c-0.31-0.28-0.63-0.56-0.97-0.84c-0.95-0.84-1.89-1.7-2.82-2.57c-0.92-0.87-1.74-1.79-2.44-2.78
			c-0.7-0.98-1.28-2.01-1.72-3.07c-0.45-1.07-0.65-2.21-0.59-3.45c0.11-1.91,0.53-3.65,1.26-5.22c0.73-1.57,1.64-2.92,2.73-4.04
			c1.09-1.12,2.31-1.98,3.66-2.57c1.35-0.59,2.75-0.83,4.21-0.72c1.18,0.11,2.23,0.42,3.16,0.93c0.93,0.5,1.72,1.14,2.4,1.89
			c0.67,0.76,1.22,1.6,1.64,2.52c0.42,0.93,0.72,1.84,0.88,2.73c-0.11,0.45-0.25,1.02-0.42,1.72c-0.17,0.7-0.31,1.43-0.42,2.19
			c-0.11,0.76-0.21,1.5-0.3,2.23c-0.08,0.73-0.07,1.35,0.04,1.85c0,0.56,0.24,1.01,0.72,1.35c0.48,0.34,1.02,0.5,1.64,0.5
			c0.67,0,1.3-0.25,1.89-0.76C176.24,26.61,176.5,25.8,176.45,24.68z"/>
		<path class="st7" d="M315.37,15.34v-0.17h0.42c0.56,0.06,1.09,0.1,1.6,0.13c0.5,0.03,1.04,0.04,1.6,0.04
			c0.45,0,1.06,0.06,1.85,0.17c0.78,0.11,1.68,0.22,2.69,0.34c2.07,0.28,4.46,0.58,7.15,0.88c2.69,0.31,5.44,0.46,8.25,0.46
			c1.91,0,3.8-0.11,5.68-0.34c1.88-0.22,3.59-0.6,5.13-1.14c1.54-0.53,2.86-1.27,3.95-2.23c1.09-0.95,1.86-2.16,2.31-3.62
			c0.28-0.9,0.27-1.67-0.04-2.31c-0.31-0.65-0.76-1.14-1.35-1.47c-0.59-0.34-1.22-0.5-1.89-0.5s-1.23,0.2-1.68,0.59
			c1.4,0.9,2.07,1.71,2.02,2.44c-0.06,0.62-0.6,1.12-1.64,1.52c-1.04,0.39-2.43,0.72-4.17,0.97c-1.74,0.25-3.73,0.42-5.97,0.51
			c-2.24,0.08-4.57,0.12-6.98,0.12c-2.58,0-5.19-0.04-7.83-0.12c-2.64-0.08-5.1-0.18-7.41-0.3l-2.44-0.25
			c-1.4-0.11-2.96-0.24-4.67-0.38c-1.71-0.14-3.46-0.21-5.26-0.21c-1.63,0-3.24,0.08-4.84,0.25c-1.6,0.17-3.11,0.45-4.54,0.84
			c-1.43,0.39-2.75,0.94-3.95,1.64c-1.21,0.7-2.17,1.59-2.9,2.65c-0.45,0.51-0.73,1.04-0.84,1.6c-0.11,0.56-0.1,0.98,0.04,1.26
			c0.14,0.28,0.41,0.39,0.8,0.34c0.39-0.06,0.93-0.45,1.6-1.18c1.52-1.51,3.21-2.54,5.09-3.07c1.88-0.53,3.88-0.8,6.02-0.8
			c1.52,0,3.04,0.08,4.59,0.25c1.54,0.17,3.1,0.37,4.67,0.59L312.34,15c-1.07,0.11-1.66,0.59-1.77,1.43
			c-0.39,2.81-0.95,5.85-1.68,9.13c-0.73,3.28-1.52,6.59-2.36,9.93c-0.84,3.34-1.68,6.61-2.52,9.8c-0.84,3.2-1.57,6.11-2.19,8.75
			c-0.22,1.01-0.48,2.08-0.76,3.2c-0.28,1.12-0.55,2.22-0.8,3.28c-0.25,1.07-0.45,2.03-0.59,2.9c-0.14,0.87-0.18,1.56-0.12,2.06
			c0.05,0.28,0.21,0.62,0.46,1.01c0.25,0.39,0.56,0.77,0.93,1.14c0.36,0.36,0.78,0.67,1.26,0.92c0.47,0.25,0.97,0.38,1.47,0.38
			c0.51,0,1-0.28,1.47-0.84c0.48-0.56,0.85-1.4,1.14-2.52c1.4-5.67,3.04-12.52,4.92-20.57c1.88-8.05,3.69-17.4,5.43-28.06
			C316.75,16.32,316.32,15.79,315.37,15.34z"/>
		<path class="st7" d="M326.1,17.9c-0.87,0.25-1.61,0.67-2.23,1.26c-0.62,0.59-1.11,1.29-1.47,2.1c-0.37,0.81-0.57,1.64-0.63,2.48
			c-0.06,0.73-0.03,1.4,0.08,2.02c0.11,0.62,0.25,1.15,0.42,1.6c0.28,0.79,0.67,1.22,1.18,1.3c0.5,0.08,0.95-0.18,1.35-0.8
			c0.45-0.73,0.77-1.29,0.97-1.68c0.2-0.39,0.63-0.98,1.3-1.77c0.56-0.62,1.12-1.26,1.68-1.94c0.56-0.67,0.98-1.32,1.26-1.94
			c0.28-0.62,0.38-1.16,0.29-1.64c-0.08-0.48-0.49-0.83-1.22-1.05C327.96,17.64,326.97,17.65,326.1,17.9z"/>
		<path class="st7" d="M368.38,58c-1.01,0.67-2.06,1.25-3.16,1.73c-1.09,0.47-2.12,0.35-3.07-0.38c-0.79-0.67-1.32-1.84-1.6-3.49
			c-0.28-1.65-0.34-3.55-0.17-5.68c0.11-1.57,0.36-3.17,0.76-4.8c0.39-1.63,0.84-3.17,1.35-4.63l1.85-4.8
			c0.34-0.67,0.39-1.26,0.17-1.77c-0.22-0.5-0.62-0.95-1.18-1.35c-0.56-0.39-1.24-0.69-2.02-0.88c-0.79-0.2-1.54-0.29-2.27-0.29
			c-1.29,0-2.24,0.22-2.86,0.84l0,0c-0.5,0.79-1.15,1.98-1.94,3.58c-0.79,1.6-1.6,3.34-2.44,5.22c-0.84,1.88-1.64,3.75-2.4,5.6
			c-0.76,1.85-1.33,3.39-1.72,4.63c-0.11,0.22-0.18,0.39-0.21,0.5c-0.03,0.11-0.07,0.22-0.13,0.34l-0.08,0.17
			c0,0.06-0.02,0.13-0.04,0.21c-0.03,0.08-0.04,0.15-0.04,0.21c-0.22-0.17-0.28-0.95-0.17-2.36c0.11-1.4,0.36-3,0.76-4.8
			c0.39-1.8,0.91-3.6,1.56-5.43c0.64-1.82,1.42-3.24,2.31-4.25c0.62-0.73,0.8-1.5,0.55-2.31c-0.25-0.81-0.73-1.49-1.43-2.02
			c-0.7-0.53-1.51-0.87-2.44-1.01c-0.93-0.14-1.75,0.1-2.48,0.72c-0.67,0.79-1.43,1.82-2.27,3.11c-0.84,1.29-1.71,2.72-2.61,4.29
			c-0.9,1.57-1.75,3.25-2.57,5.05c-0.81,1.8-1.56,3.62-2.23,5.47h-0.17c0.22-1.4,0.63-3.28,1.22-5.64c0.59-2.36,1.3-4.71,2.14-6.9
			l0,0c0.34-0.9,0.69-1.73,1.05-2.48c0.36-0.76,0.74-1.44,1.14-2.06c0.11-0.17,0.08-0.35-0.08-0.55c-0.17-0.2-0.43-0.36-0.8-0.5
			c-0.37-0.14-0.8-0.27-1.3-0.38c-0.5-0.11-1.04-0.17-1.6-0.17c-0.67,0-1.36,0.15-2.06,0.46c-0.7,0.31-1.22,0.77-1.56,1.39
			c-0.22,0.73-0.56,1.95-1.01,3.66c-0.45,1.71-0.9,3.55-1.35,5.51c-0.42,1.84-0.77,3.57-1.07,5.24c-0.22,0.47-0.43,0.94-0.66,1.41
			c-0.65,1.35-1.33,2.55-2.06,3.62c-0.73,1.07-1.52,1.91-2.36,2.52c-0.84,0.62-1.74,0.81-2.69,0.59c-0.84-0.17-1.4-0.72-1.68-1.64
			c-0.28-0.93-0.37-2.03-0.25-3.32c0.11-1.35,0.38-2.82,0.8-4.42c0.42-1.6,0.85-3.13,1.3-4.59c0.45-1.46,0.9-2.75,1.35-3.87
			c0.45-1.12,0.76-1.91,0.93-2.36c0.39-0.73,0.17-1.26-0.67-1.6c-0.84-0.34-1.74-0.5-2.69-0.5c-0.73,0-1.42,0.08-2.06,0.25
			c-0.65,0.17-1.02,0.45-1.14,0.84c-0.34,0.67-0.7,1.54-1.09,2.61c-0.39,1.07-0.76,2.23-1.09,3.49c-0.34,1.26-0.65,2.57-0.93,3.91
			c-0.28,1.35-0.47,2.64-0.59,3.87c-0.11,1.8-0.03,3.49,0.25,5.09c0.28,1.6,0.9,2.85,1.85,3.74c0.79,0.67,1.57,1.14,2.36,1.39
			c0.79,0.25,1.74,0.38,2.86,0.38c1.74,0,3.32-0.55,4.75-1.64s2.69-2.43,3.79-4c0,0,0.01-0.01,0.01-0.01
			c0.09,0.1,0.14,0.21,0.24,0.31c0.59,0.59,1.25,1.08,1.98,1.47c0.73,0.39,1.4,0.65,2.02,0.76c0.62,0.11,1.04,0,1.26-0.34v0.08
			c1.29-3.98,2.55-7.24,3.79-9.76c1.23-2.52,2.33-4.32,3.28-5.39l0.34,0.08c-0.34,1.12-0.65,2.29-0.93,3.49
			c-0.28,1.21-0.55,2.37-0.8,3.49c-0.25,1.12-0.46,2.12-0.63,2.99c-0.17,0.87-0.28,1.53-0.34,1.98c-0.06,0.62,0.24,1.17,0.88,1.64
			c0.65,0.48,1.39,0.86,2.23,1.14c0.84,0.28,1.68,0.45,2.52,0.5c0.84,0.06,1.43-0.05,1.77-0.34c0.62-1.4,1.23-2.82,1.85-4.25
			c0.62-1.43,1.22-2.79,1.81-4.08c0.59-1.29,1.12-2.48,1.6-3.58c0.47-1.09,0.88-1.98,1.22-2.65c0.22-0.51,0.48-0.98,0.76-1.43
			c0.28-0.45,0.53-0.8,0.76-1.05c0.22-0.25,0.41-0.38,0.55-0.38c0.14,0,0.18,0.22,0.13,0.67c0,0.5-0.17,1.37-0.51,2.61
			c-1.12,3.48-1.79,6.68-2.02,9.59c-0.28,3.2-0.03,5.92,0.76,8.16c0.79,2.24,2.22,3.76,4.29,4.54c1.23,0.5,2.37,0.59,3.41,0.25
			c1.04-0.34,1.95-0.84,2.73-1.51c0.78-0.67,1.42-1.4,1.89-2.19c0.48-0.79,0.77-1.4,0.88-1.85L368.38,58L368.38,58z"/>
		<path class="st7" d="M286.97,17.23c-0.2-0.59-0.55-1.04-1.05-1.35c-0.5-0.31-1.09-0.38-1.77-0.21c0.34,1.18,0.03,2.19-0.93,3.03
			c-0.95,0.84-2.27,1.54-3.95,2.1c-1.68,0.56-3.56,0.98-5.64,1.26c-2.08,0.28-4.07,0.42-5.98,0.42c-1.23,0-2.34-0.05-3.32-0.17
			c-0.98-0.11-1.72-0.28-2.23-0.51l1.01-2.02l0.34-0.84c0.17-0.51,0.17-0.97,0-1.39c-0.17-0.42-0.42-0.77-0.76-1.05
			c-0.34-0.28-0.73-0.49-1.18-0.63c-0.45-0.14-0.87-0.21-1.26-0.21c-0.67,0-1.24,0.07-1.68,0.21c-0.45,0.14-0.86,0.42-1.22,0.84
			c-0.37,0.42-0.75,1.05-1.14,1.89c-0.39,0.84-0.87,1.96-1.43,3.37l-6.48-0.84c-1.29-0.22-2.43-0.39-3.41-0.5
			c-0.98-0.11-2.09-0.14-3.32-0.08c-2.36-0.05-4.01,0.32-4.96,1.14c-0.95,0.81-1.52,1.72-1.68,2.73c0.06,0.22,0.11,0.46,0.17,0.72
			c0.06,0.25,0.22,0.27,0.5,0.04c1.07-0.67,2.1-1.15,3.11-1.43c1.01-0.28,2.08-0.42,3.2-0.42c1.01,0,2.05,0.1,3.11,0.3
			c1.07,0.2,2.19,0.41,3.37,0.63c0.56,0.11,1.09,0.22,1.6,0.34c0.5,0.11,1.07,0.22,1.68,0.34l2.27,0.59l-1.43,5.22
			c-0.22,0.67-0.42,1.42-0.59,2.23c-0.17,0.81-0.37,1.64-0.59,2.48l-0.08,0.34c-0.5,2.24-0.97,4.57-1.39,6.98
			c-0.32,1.81-0.54,3.39-0.71,4.85c-0.8,1.25-1.66,2.36-2.61,3.27c-2.13,2.05-4.21,3.35-6.23,3.91c-0.79,0.17-1.6,0.25-2.27,0.25
			c-1.8,0-3.03-0.6-3.7-1.81c-0.67-1.21-0.95-2.65-0.84-4.33c0.11-0.73,0.28-1.49,0.5-2.27c0.22-0.78,0.64-1.51,1.26-2.19
			c0.34,0.39,0.77,0.62,1.3,0.67c0.53,0.06,1.08,0.08,1.64,0.08c1.07,0,2.13-0.28,3.2-0.84c1.07-0.56,2.03-1.3,2.9-2.23
			c0.87-0.93,1.6-1.95,2.19-3.07c0.59-1.12,0.94-2.24,1.05-3.37c0.11-1.18-0.2-2.3-0.93-3.37c-0.28-0.51-0.76-0.88-1.43-1.14
			c-0.67-0.25-1.43-0.38-2.27-0.38c-0.79,0-1.66,0.13-2.61,0.38c-0.96,0.25-1.91,0.69-2.86,1.3c-1.35,0.79-2.58,1.77-3.7,2.95
			c-1.12,1.18-2.1,2.48-2.94,3.91c-0.84,1.43-1.53,2.93-2.06,4.5c-0.42,1.23-0.66,2.45-0.82,3.68c-0.81,1.28-1.69,2.41-2.67,3.35
			c-2.13,2.05-4.21,3.35-6.23,3.91c-0.79,0.17-1.6,0.25-2.27,0.25c-1.8,0-3.03-0.6-3.7-1.81c-0.67-1.21-0.95-2.65-0.84-4.33
			c0.11-0.73,0.28-1.49,0.5-2.27c0.22-0.78,0.64-1.51,1.26-2.19c0.34,0.39,0.77,0.62,1.3,0.67c0.53,0.06,1.08,0.08,1.64,0.08
			c1.07,0,2.13-0.28,3.2-0.84c1.07-0.56,2.03-1.3,2.9-2.23c0.87-0.93,1.6-1.95,2.19-3.07c0.59-1.12,0.94-2.24,1.05-3.37
			c0.11-1.18-0.2-2.3-0.93-3.37c-0.28-0.51-0.76-0.88-1.43-1.14c-0.67-0.25-1.43-0.38-2.27-0.38c-0.79,0-1.66,0.13-2.61,0.38
			c-0.96,0.25-1.91,0.69-2.86,1.3c-1.35,0.79-2.58,1.77-3.7,2.95c-1.12,1.18-2.1,2.48-2.94,3.91c-0.84,1.43-1.53,2.93-2.06,4.5
			c-0.33,0.97-0.55,1.95-0.72,2.92c-0.14,0.12-0.27,0.27-0.42,0.36c-0.62,0.28-1.26,0.44-1.94,0.46s-1.26-0.13-1.77-0.46
			c0.62-1.18,1.23-2.38,1.85-3.62c0.62-1.23,1.16-2.43,1.64-3.58c0.48-1.15,0.88-2.21,1.22-3.2c0.34-0.98,0.53-1.78,0.59-2.4
			c0.11-0.95-0.28-1.81-1.18-2.57c-0.9-0.76-1.82-1.14-2.78-1.14c-1.07,0-1.71,0.56-1.94,1.68c-0.62,3.42-1.49,6.93-2.61,10.52
			c-1.12,3.59-2.66,6.87-4.63,9.84c-0.9,1.4-1.77,2.1-2.61,2.1c-0.39,0-0.69-0.22-0.88-0.67c-0.2-0.45-0.24-1.23-0.13-2.36
			c0.11-1.07,0.31-2.29,0.59-3.66c0.28-1.37,0.6-2.76,0.97-4.17c0.36-1.4,0.77-2.75,1.22-4.04c0.45-1.29,0.9-2.38,1.35-3.28
			c0.06-0.45-0.29-0.92-1.05-1.43c-0.45-0.3-1.53-0.57-2.48-0.73c-0.69-0.11-1.3,0.07-1.47,0.14c-0.42,0.17-0.75,0.56-0.97,1.18
			c0,0-0.37,0.96-0.77,2c-0.52,1.38-1.12,3.03-1.34,3.89c-0.39,1.51-0.7,3.08-0.92,4.71c-0.22,0.5-0.51,1.26-0.84,2.27
			c-0.34,1.01-0.73,2.02-1.18,3.03c-0.45,1.01-0.97,1.89-1.56,2.65c-0.59,0.76-1.25,1.14-1.98,1.14c-1.12,0-1.6-1.29-1.43-3.87
			c0.11-1.07,0.36-2.47,0.76-4.21c0.39-1.74,0.87-3.53,1.43-5.39c0.56-1.85,1.12-3.62,1.68-5.3c0.56-1.68,1.07-3,1.52-3.95
			c0.05-0.45-0.24-0.9-0.88-1.35c-0.65-0.45-1.39-0.67-2.23-0.67c-0.56,0-1.17,0.13-1.81,0.38c-0.65,0.25-1.19,0.66-1.64,1.22
			l-0.42,1.26c-0.22,0.84-0.52,1.89-0.88,3.16c-0.36,1.26-0.72,2.61-1.05,4.04c-0.34,1.43-0.64,2.89-0.92,4.37
			c-0.28,1.49-0.48,2.85-0.59,4.08c-0.06,0.45-0.08,0.88-0.08,1.3c0,0.42,0,0.83,0,1.22c0.06,0.84,0.31,1.67,0.76,2.48
			c0.45,0.81,0.97,1.54,1.56,2.19c0.59,0.65,1.25,1.16,1.98,1.56c0.73,0.39,1.43,0.56,2.1,0.51c0.73-0.11,1.35-0.35,1.85-0.72
			c0.51-0.37,0.97-0.79,1.39-1.26c0.42-0.47,0.83-0.99,1.22-1.56c0.39-0.56,0.81-1.09,1.26-1.6c0.22,0.73,0.67,1.4,1.35,2.02
			c0.67,0.62,1.42,1.17,2.23,1.64c0.81,0.48,1.64,0.84,2.48,1.09c0.84,0.25,1.54,0.35,2.1,0.3c0.34,0,0.8-0.28,1.39-0.84
			c0.59-0.56,1.21-1.28,1.85-2.15c0.64-0.87,1.27-1.82,1.89-2.86c0.62-1.04,1.15-2.06,1.6-3.07c0.28,0.17,0.6,0.32,0.97,0.46
			c0.36,0.14,0.72,0.27,1.05,0.38c1.2-0.03,2.29-0.2,3.27-0.52c0.01,0.84,0.08,1.66,0.27,2.45c0.28,1.18,0.8,2.22,1.56,3.11
			c0.76,0.9,1.74,1.63,2.94,2.19c1.21,0.56,2.71,0.84,4.5,0.84c1.57,0,3.24-0.31,5.01-0.93c1.77-0.62,3.48-1.58,5.13-2.9
			c0.77-0.62,1.51-1.33,2.22-2.1c0.29,1.09,0.77,2.06,1.48,2.9c0.76,0.9,1.74,1.63,2.94,2.19c1.21,0.56,2.71,0.84,4.5,0.84
			c1.57,0,3.24-0.31,5.01-0.93c1.77-0.62,3.48-1.58,5.13-2.9c0.63-0.5,1.22-1.11,1.82-1.72c0.14,1.21,0.44,2.17,0.92,2.86
			c0.9,1.29,2.36,2.13,4.37,2.52c2.13,0.45,3.96,0.17,5.47-0.84c1.52-1.01,2.89-2.66,4.12-4.96c0.67-1.29,1.3-2.78,1.89-4.46
			c0.59-1.68,1.19-3.56,1.81-5.64c0.11-0.45,0.05-0.83-0.17-1.14c-0.22-0.31-0.5-0.5-0.84-0.59c-0.34-0.08-0.67-0.04-1.01,0.13
			c-0.34,0.17-0.59,0.53-0.76,1.09c-0.45,1.63-0.93,3.14-1.43,4.55c-0.5,1.4-1.07,2.66-1.68,3.79c-0.95,1.85-1.91,3.31-2.86,4.37
			c-0.95,1.07-1.78,1.63-2.48,1.68c-0.7,0.06-1.23-0.43-1.6-1.47c-0.37-1.04-0.44-2.73-0.21-5.09c0.22-2.41,0.62-4.88,1.18-7.41
			c0.56-2.52,1.18-4.88,1.85-7.07c0.67-2.19,1.33-4.08,1.98-5.68c0.64-1.6,1.14-2.71,1.47-3.32l2.36,0.25
			c0.56,0.11,1.3,0.21,2.23,0.3c0.92,0.08,2.48,0.15,4.67,0.21c3.7,0.11,6.93-0.31,9.68-1.26c2.75-0.95,4.71-2.24,5.89-3.87
			c0.62-0.84,1.01-1.67,1.18-2.48C287.18,18.52,287.17,17.82,286.97,17.23z M237.96,39.45c0.5-0.76,1.09-1.52,1.77-2.27
			c0.67-0.76,1.36-1.42,2.06-1.98c0.7-0.56,1.22-0.84,1.56-0.84h0.34c0.45,0.45,0.67,0.98,0.67,1.6c-0.06,0.62-0.28,1.29-0.67,2.02
			c-0.39,0.73-0.86,1.4-1.39,2.02c-0.53,0.62-1.11,1.15-1.73,1.6c-0.62,0.45-1.21,0.67-1.77,0.67c-0.22,0-0.58-0.07-1.05-0.21
			c-0.48-0.14-0.69-0.43-0.63-0.88C237.17,40.78,237.45,40.2,237.96,39.45z M216.67,39.45c0.5-0.76,1.09-1.52,1.77-2.27
			c0.67-0.76,1.36-1.42,2.06-1.98c0.7-0.56,1.22-0.84,1.56-0.84h0.34c0.45,0.45,0.67,0.98,0.67,1.6c-0.06,0.62-0.28,1.29-0.67,2.02
			c-0.39,0.73-0.86,1.4-1.39,2.02c-0.53,0.62-1.11,1.15-1.73,1.6c-0.62,0.45-1.21,0.67-1.77,0.67c-0.22,0-0.58-0.07-1.05-0.21
			c-0.48-0.14-0.69-0.43-0.63-0.88C215.88,40.78,216.17,40.2,216.67,39.45z"/>
		<path class="st7" d="M390.72,41.51c-0.37-0.22-0.77-0.34-1.22-0.34c-0.62,0-1.09,0.37-1.43,1.09c-1.35,3.7-3.08,6.58-5.22,8.62
			c-2.13,2.05-4.21,3.35-6.23,3.91c-0.79,0.17-1.6,0.25-2.27,0.25c-1.8,0-3.03-0.6-3.7-1.81c-0.67-1.21-0.95-2.65-0.84-4.33
			c0.11-0.73,0.28-1.49,0.5-2.27c0.22-0.78,0.64-1.51,1.26-2.19c0.34,0.39,0.77,0.62,1.3,0.67c0.53,0.06,1.08,0.08,1.64,0.08
			c1.07,0,2.13-0.28,3.2-0.84c1.07-0.56,2.03-1.3,2.9-2.23c0.87-0.93,1.6-1.95,2.19-3.07c0.59-1.12,0.94-2.24,1.05-3.37
			c0.11-1.18-0.2-2.3-0.93-3.37c-0.28-0.51-0.76-0.88-1.43-1.14c-0.67-0.25-1.43-0.38-2.27-0.38c-0.79,0-1.66,0.13-2.61,0.38
			c-0.96,0.25-1.91,0.69-2.86,1.3c-1.35,0.79-2.58,1.77-3.7,2.95c-1.12,1.18-2.1,2.48-2.94,3.91c-0.84,1.43-1.53,2.93-2.06,4.5
			c-0.53,1.57-0.85,3.14-0.97,4.71c-0.11,1.29-0.03,2.53,0.25,3.7c0.28,1.18,0.8,2.22,1.56,3.11c0.76,0.9,1.74,1.63,2.94,2.19
			c1.21,0.56,2.71,0.84,4.5,0.84c1.57,0,3.24-0.31,5.01-0.93c1.77-0.62,3.48-1.58,5.13-2.9c1.65-1.32,3.17-3,4.54-5.05
			s2.45-4.5,3.24-7.36C391.27,41.96,391.09,41.73,390.72,41.51z M374.27,39.45c0.5-0.76,1.09-1.52,1.77-2.27
			c0.67-0.76,1.36-1.42,2.06-1.98c0.7-0.56,1.22-0.84,1.56-0.84h0.34c0.45,0.45,0.67,0.98,0.67,1.6c-0.06,0.62-0.28,1.29-0.67,2.02
			c-0.39,0.73-0.86,1.4-1.39,2.02c-0.53,0.62-1.11,1.15-1.73,1.6c-0.62,0.45-1.21,0.67-1.77,0.67c-0.22,0-0.58-0.07-1.05-0.21
			c-0.48-0.14-0.69-0.43-0.63-0.88C373.49,40.78,373.77,40.2,374.27,39.45z"/>
	</g>
</g>
</svg>
